<svg width="43" height="43" viewBox="0 0 43 43" fill="none" xmlns="http://www.w3.org/2000/svg">
<path fill-rule="evenodd" clip-rule="evenodd" d="M21.5 43C33.3741 43 43 33.3741 43 21.5C43 9.62585 33.3741 0 21.5 0C9.62585 0 0 9.62585 0 21.5C0 33.3741 9.62585 43 21.5 43ZM32.337 20.6707C32.7772 21.0679 32.7772 21.7585 32.337 22.1557L25.2307 28.567C24.5874 29.1473 23.5608 28.6908 23.5608 27.8245V24.4132H11C10.4477 24.4132 10 23.9655 10 23.4132V19.4132C10 18.8609 10.4477 18.4132 11 18.4132H23.5608V15.002C23.5608 14.1356 24.5874 13.6791 25.2307 14.2595L32.337 20.6707Z" fill="#ADD600"/>
</svg>
