<svg xmlns="http://www.w3.org/2000/svg" viewBox="0 0 958.07 411.77"><defs><style>.cls-1{fill:#fbfbfb;}.cls-2{fill:#f3efee;}.cls-3{fill:#ed6d3f;}.cls-4{fill:#050302;}.cls-5{fill:#f5bfa5;}</style></defs><g id="Layer_2" data-name="Layer 2"><g id="Layer_1-2" data-name="Layer 1"><path class="cls-1" d="M958.07,242.87c-1.38-1.35-1.59.07-1.85.87-4.83,14.56-15.8,21.81-30.11,24.44-18.86,3.46-36.71.66-53.08-9.89-3.17-2-4.2-3.93-2.24-7.57a72.61,72.61,0,0,0,4.81-12c1-3.09,2-2.91,4.38-1.19a53.85,53.85,0,0,0,37.6,10.39,22.25,22.25,0,0,0,11.64-4c7.14-5.32,6.78-15.41-.8-20.07-6-3.7-13-5-19.71-6.78A150.34,150.34,0,0,1,893.1,212c-30.16-11.31-25.42-48.37-7.61-61.5C900,139.8,916,139.31,932.6,143.39a50.58,50.58,0,0,1,20,9.71c2,1.63,2.36,3.13,1.35,5.47-2.28,5.3-4.32,10.7-6.62,16.48-5.91-4.55-11.77-8.55-18.71-10.58-7.49-2.19-15-3-22.59-.58-7,2.23-10.86,7.27-11,13.79-.17,6.18,2.49,9.69,9.81,12.81,6.76,2.89,14,4.24,21,6.34A73.13,73.13,0,0,1,942.73,204c5.86,3.51,10.5,8.11,13.14,14.55.35.85.12,3.14,2.2,1.33Z"/><path class="cls-2" d="M87.22,411.77c1.65-2.29-.53-1.79-1.51-2A102.87,102.87,0,0,1,66,404.41c-27.92-10.89-43.74-32.5-52.83-60C5,319.58,2.43,293.76,1.32,267.8q-2.7-62.91,0-125.84C2.47,115,5,88.19,13.84,62.41,25.29,29.21,47.18,7.88,82.62,2a4.64,4.64,0,0,0,1.92-.44c.63-.47.38-1.13-.32-1.53h48c-1.46,2.93,1.26,1.8,2.11,2,10.32,1.84,20.48,4.22,30.1,8.51,27.12,12.08,42.06,34,49.73,61.75,5.8,21,7.22,42.56,7.64,64.17.54,27.42.95,54.87-.73,82.28-.23,3.68,1,8-2.52,11l.15-29.94c.85-6.23.5-12.48.39-18.72.65-23.92,1-47.85-1.1-71.7-1-10.68-2.12-21.43-5.57-31.72.06-2.65-1.06-4-3.88-3.57-1.94.3-3.88.62-5.84.82-1.44.15-3.27-.38-2.1-2,2.11-2.94,3.24-7,7.61-7.84l.41.21-.44-.18a8.08,8.08,0,0,0-2.55-7,17.63,17.63,0,0,0-1-3.27C195.4,36.59,182.57,21.9,163.36,14,133,1.63,101.8,1.14,70.52,9.31A65.7,65.7,0,0,0,32,36.73l-1.34,1.62A59.17,59.17,0,0,0,23.49,50.7c3.62-2,6.42-2.52,7.33,1,.64,2.48-1.09,4.43-3.4,5.38-3.87,1.59-3.67-2.08-4.79-4.8l-4.28,9.6c-1.3,4.31-4.08,8.77,1.59,12.26.95.59,2.64,1.61,1.73,3.1-.76,1.22-2.5.82-3.69.41-3.21-1.12-4.8-.19-4.77,3.27a67.88,67.88,0,0,0-3,16.9,13.49,13.49,0,0,0-1,7.1,16.19,16.19,0,0,0-.94,7.86,45.77,45.77,0,0,0-1.09,13C5.49,135.31,5.48,145,5.42,154.59,5.16,199,3.77,243.4,7.29,287.73c.89,11.21,1.85,22.46,4.78,33.4,0,2.23.51,3.53,3.25,3.85,6.88.8,13.74,1.75,20.68,1.89.92,0,2.15-.35,2.63.8s-.57,1.82-1.26,2.44c-1.27,1.17-2.11,3.16-4.41,2.6.53-1.9.48-3.74-1.46-4.74-1.12-.57-2.28.18-3,1.11s-.45,2.09.33,3.12c1.29,1.73,2.68,1.54,4.22.45.2,3.3-1.46,3.69-4,2.53a10.76,10.76,0,0,1-4-3.63c-1.18-1.53-2.14-4.63-4.77-2.91-2.33,1.53-5.13,3.32-5,6.87a2.61,2.61,0,0,0,.65,1.75c.57.48,1.15-.12,1.68-.54,4.14-3.31,5.93-2.87,8.63,2.12l0,0c-2.35-.54-4.43.94-6.66.94-4.16,0-3.29,1.8-1.64,4,1.05,5.78,3.64,11,6.19,16.18,11,22.2,27.85,37.1,52.25,43.42a137,137,0,0,0,65.2,1.26c20.27-4.54,37.23-14.74,48.93-32.5.28-.4.55-.81.82-1.21,2.85-3.12,4.68-6.88,6.52-10.62.06-.41.32-1,.15-1.18-.43-.37-.83-.05-1,.44-2.32.47-4.86,1.1-5.55-2.15-.51-2.4,1.07-4.17,3-5.18,3.49-1.8,4.15,1.39,5.31,4.27,2.19-4.91,4.51-8.88,5-13.55,4.74-6.33-3-2.82-3.84-4.74.65-1.55,1.64-2.57,3.37-2.28,1.22.2,2.6,1.39,3.38-.45s-1-2.51-2.07-3.42c-.81-.7-2.16-.7-2.59-2,3-1.36,7.84-.47,7.5-6l.24-.8-.76.28-3,.43c-2.1,0-3.85-.57-3.12-3.15.66-2.34,2.9-2.55,4.48-1.66,3.15,1.77,3.63.26,3.7-2.34,1-5.58,2.39-11.09,2.43-16.8,1.24-2.81.89-5.79.94-8.73,1.57-3.7.59-7.7,1.29-11.5.92-3.05.46-6.17.55-9.46-1.84.38-3.37,2.77-5.27.6a2,2,0,0,1-.14-2.68c1.6-2.3,3.57-.89,5.37-.05a94.17,94.17,0,0,0,1.2-15.67l1.5-11.71c.47-2.92.93-5.84,1.45-9.16a7.11,7.11,0,0,1,1.63,5c1.18,37.46-1.4,74.5-14,110.13-9.32,26.31-25.49,46.83-52.37,57.35A108.25,108.25,0,0,1,136,409.85c-.9.16-3.19-.52-1.74,1.92Z"/><path class="cls-3" d="M218.7,199.69l-.15,29.94c.34,3.72-.56,7.49.41,11.2-1.17,3.86-.11,7.84-.57,11.74a94.17,94.17,0,0,1-1.2,15.67c-1.8-.84-3.77-2.25-5.37.05A2,2,0,0,0,212,271c1.9,2.17,3.43-.22,5.27-.6-.09,3.29.37,6.41-.55,9.46-1.25-2.84-3.51-4.75-5.89-6.62-20.37-16-35.49-35.85-44-60.48-3.39-9.78-2.92-18.92,2.08-28.31,12.42-23.31,26.68-45.3,44.51-64.85,3.15-3.45,3.24-7.17,2.68-11.1s-3.35-4.78-6.3-2S204,112.1,201,114.7c-24.22,20.77-43.82,45.51-61.81,71.66-7.73,11.23-8.33,22.46-.24,33.77,1.94,2.71,3.71,5.55,5.84,8.1,19.18,23,41.23,43,65.11,61a9.25,9.25,0,0,0,5.49,2.12c0,2.94.3,5.92-.94,8.73-9.28-5.54-19-10.4-27.73-16.76-19.83-14.52-36.95-32.2-52.21-51.27-11.88-14.85-17-42.15,3.36-60.16a63.55,63.55,0,0,0,8.74-10.23c17.38-23.73,38.52-43.58,62.26-60.79a28.58,28.58,0,0,0,4.84-4.27,3.13,3.13,0,0,0,0-4.15c-1-1.24-2.56-.91-3.64-.16a76.17,76.17,0,0,0-7.92,6c-8.28,7.46-15.94,15.59-24.66,22.58C164.84,131,153.1,142,143.38,155.09a71.18,71.18,0,0,1-12.75,12.62c-13.2,10.62-18.69,10.36-30.8-1.38s-23.25-24.8-36.54-35.45c-14.48-11.6-29-23.13-46.08-30.93,2-.81,5.7.14,4.89-3.88-.55-2.75-3.16-2.31-4.88-1.64-4.34,1.67-.92,3.68,0,5.55-2.74.61-4.54-1.87-7-2.16a67.88,67.88,0,0,1,3-16.9,28.12,28.12,0,0,0,4.38.89c21.91,1,43.81,2.19,65.72,3,17.78.63,35.52-.93,53.28-1.55,25.38-.89,50.71-1.72,75.83-5.68,3.45,10.29,4.61,21,5.57,31.72,2.15,23.85,1.75,47.78,1.1,71.7-3.76-4.2-6.08-4.22-9.46,0a30.79,30.79,0,0,0-2.56,3.63c-2.08,3.53-1.49,11.14,1.31,14C211.41,201.75,215,201.85,218.7,199.69ZM117.19,168.38a11.79,11.79,0,0,0,6.88-2.63,62.75,62.75,0,0,0,12.26-11.66c10.63-13.12,22.85-24.62,35.61-35.6,5.68-4.89,11.16-10,16.68-15,1.83-1.68,2.86-3.71,1.72-6.24s-3.49-3-5.86-2.84c-29.06,2.27-58.18,2.14-87.3,2.6-19.13.31-38.27.54-57.37,1.9-1.62.12-3.75-.32-4.42,1.52-.75,2.06,1.1,3.27,2.56,4.38.93.71,1.9,1.35,2.88,2a296,296,0,0,1,47.91,39c6.67,6.73,13.89,12.92,20.87,19.34A11.17,11.17,0,0,0,117.19,168.38Zm78,36.13c-.41-7.42-2-11.92-5.76-16.58-4.41-5.42-11.87-4.45-14.73,2-.94,2.1-1.29,4.46-2.21,6.57-3.75,8.64-1.47,14.39,7.44,17.06C189.47,216.44,196.8,210.74,195.17,204.51ZM202,162.17c4.6,0,7.35-2.83,9.11-6.6,1.92-4.1,3.51-8.5.45-12.72a6,6,0,0,0-7.46-2.37,16.37,16.37,0,0,0-10.34,10.68C191.81,157.22,195.66,162.26,202,162.17Zm11.52,73.92c.45-2.66.4-5.4-3-6.82s-5.85-.27-8,2.2a28.32,28.32,0,0,0-3.89,5.15c-1.82,3.49.74,8.68,4.95,10.58,3.86,1.75,6.71.4,8.66-4C213.31,241,213.41,238.72,213.55,236.09ZM105,92.16c-.27-2-2-2.56-3.51-2.74-1.85-.21-3.75.33-3.95,2.63-.15,1.67.85,2.74,2.67,2.75C102.24,94.81,104.07,94.38,105,92.16ZM51.85,97c1.74,0,3.57-.11,3.43-2.45s-2.16-3.18-4.19-3.36c-1.78-.16-2.75,1-2.79,2.75C48.24,96.28,49.76,97,51.85,97Zm31.87-1.09c1.5-.33,3.5-.75,3.55-3,.06-2.59-2.2-3.1-4.13-3.14s-2.78,1.53-2.82,3.32C80.28,95.11,81.39,96.07,83.72,95.89Zm120.21-4c1.89-.45,3.34-1.38,3.3-3.31-.06-2.7-2.35-2.94-4.3-3-1.35-.07-2.85.62-2.54,2.33C200.75,89.83,201.6,91.67,203.93,91.9Zm-83.55,0c0-2-1-3.09-3-3-1.78.05-4-.06-4,2.51-.07,2.36,2,2.86,3.75,3.2C119,94.92,120.2,93.9,120.38,91.86Zm80.76,162.07c-.17-2.21-1.75-3.23-3.6-3.52a2.62,2.62,0,0,0-3.25,2.35c-.17,2.34,1.51,3.09,3.55,3.24C199.42,256.12,200.9,256,201.14,253.93Zm16.1-90.14c.09-2.18-.6-3.29-2.2-3.29a3.86,3.86,0,0,0-4,3.61,2,2,0,0,0,2.23,2.59C215.34,166.56,217.06,165.64,217.24,163.79ZM167.16,88.91c-1.78,0-3.75.32-3.58,2.36s2.16,2.68,4.13,2.65,3.33-.72,3.16-2.85C170.68,88.77,168.84,88.87,167.16,88.91Zm19.17-1c-2.22,0-4.12.45-4,2.54.19,2.26,2.3,2.49,4.22,2.49s2.89-.75,2.83-2.65C189.36,88,187.67,87.87,186.33,88Zm-36.16,1.5c-1.67.45-3.61.87-3.4,2.89.19,1.86,2,2.51,3.71,2.35,1.57-.15,2.82-1,2.7-2.82S151.65,89.6,150.17,89.45Zm45,141.36c-.1-1.93-.84-3.21-3-3-1.76.14-2.89,1-2.74,2.83s1.14,3.19,3.15,3.18C194.35,233.77,195.07,232.53,195.13,230.81ZM35.78,92.29c-1.63.34-2.87,1-2.62,2.95a2.75,2.75,0,0,0,3.2,2.41c1.52-.09,3.08-.66,3-2.58C39.23,92.94,37.33,92.76,35.78,92.29Zm174.92,170c-.16-1.69-1.07-2.87-2.75-2.87s-3.32.71-3.61,2.63,1,2.63,2.65,2.76A3.33,3.33,0,0,0,210.7,262.27Zm-4.59-60.11c-.59-1.28-1.09-3.17-3.35-3.22-1.85,0-2.65,1.16-2.53,2.89.14,2.19,1.59,3.18,3.6,3.25C205.41,205.15,206.21,204.19,206.11,202.16Zm-1.23,10.47a2.56,2.56,0,0,0-2.43-2.67,3,3,0,0,0-3.38,2.88,2.34,2.34,0,0,0,2.52,2.91C203.54,215.75,204.39,214.3,204.88,212.63Zm-70-118.07c1.7-.64,3.42-1.34,3.42-3.61,0-1.71-1.09-2.38-2.6-2.18a3.55,3.55,0,0,0-3.19,3.77C132.45,93.88,133.49,94.5,134.86,94.56Zm-62.78-1.4A2.66,2.66,0,0,0,68.71,91c-1.75.32-3.35,1.27-3.1,3.21s2,1.87,3.58,1.72A2.83,2.83,0,0,0,72.08,93.16ZM192,244.88c1.78-.07,2.6-1,2.35-2.59a3.51,3.51,0,0,0-3.69-3.33,2.17,2.17,0,0,0-2.29,2.63C188.57,243.73,190,244.71,192,244.88Zm9.35-53a2.7,2.7,0,0,0,2.8-2.75c.1-2-1.41-2.59-2.88-2.83-1.69-.28-2.37,1.1-2.45,2.48C198.68,190.4,199.19,191.81,201.3,191.92ZM206,177.29c-.21-1.28-.74-2.45-2.37-2.51s-2.36,1-2.43,2.49.31,2.78,1.94,3C205,180.46,205.51,178.94,206,177.29Zm2.59-3.45a2.45,2.45,0,0,0,2.44-2.52,2.2,2.2,0,0,0-2.36-2.5,2.36,2.36,0,0,0-2.44,2.5A2.27,2.27,0,0,0,208.55,173.84ZM196.3,218.75a2.22,2.22,0,0,0-2.13,2.75c.14,1.3.9,2.25,2.24,2.11a2.64,2.64,0,0,0,2.51-2.62C199,219.36,197.8,218.76,196.3,218.75Z"/><path class="cls-1" d="M707.69,235.4c12.22,9.49,25.33,13.83,40.13,12.51a32.65,32.65,0,0,0,6.36-1.15c6.56-1.95,10.46-6.45,10.82-12.23s-2.6-9.62-9.48-12.56c-6.46-2.75-13.38-3.95-20-6a108.28,108.28,0,0,1-12.22-4.25c-22.9-10.1-28.66-38.09-11.74-56.79,7.38-8.16,16.78-12.4,27.6-13.44,15.77-1.52,30.42,1.57,43.44,11.06,2.55,1.86,3.19,3.65,1.77,6.7-2.36,5.09-4.19,10.42-6.35,15.92-10.84-9.09-22.65-14-36.61-12.39a20,20,0,0,0-10.1,3.9C723,173,723.9,184.48,733,189.28c5.18,2.73,10.83,4.19,16.47,5.61a103.25,103.25,0,0,1,20.19,7c12.15,5.92,19,15.25,19,29.1,0,14.28-5.54,25.63-18.41,32.5s-26.52,7.1-40.41,4.91a62.8,62.8,0,0,1-26.67-10.51c-2.54-1.78-3.6-3.29-2.1-6.46C703.5,246.4,705.39,241.09,707.69,235.4Z"/><path class="cls-1" d="M309.07,267.9c14.68-38.34,29.08-76,43.5-113.57C357,142.76,357,143,369.37,142.64c4.66-.13,6.84,1.21,8.53,5.69,14.53,38.47,29.34,76.84,44.06,115.24.46,1.22.82,2.48,1.44,4.33-7.12,0-13.86-.1-20.59.05-2.4.05-2.56-1.58-3.11-3.09-2.56-7.19-5.18-14.35-7.65-21.57-.79-2.34-1.91-3.34-4.57-3.31q-21,.22-42,0c-2.64,0-3.72.91-4.53,3.33-2.38,7.07-5.19,14-7.54,21.08-.87,2.6-1.95,3.7-4.85,3.58C322.29,267.73,316,267.9,309.07,267.9Zm74.26-48.78c-5.58-15.58-11-30.67-16.75-46.75-5.55,15.43-10.68,29.78-15.92,44.09-.73,2-.39,2.69,1.77,2.68C362.56,219.09,372.69,219.12,383.33,219.12Z"/><path class="cls-1" d="M599.15,267.9c-7.06,0-13.56-.14-20,.08-2.44.08-3.12-1.12-3.76-3-2.45-7-5.05-14-7.4-21.13-.88-2.68-2-4-5.2-3.93-13.81.21-27.63.16-41.45,0-2.59,0-3.81.76-4.64,3.25-2.36,7.08-5.15,14-7.47,21.1-.93,2.86-2.36,3.75-5.3,3.63-6.14-.23-12.29-.07-19-.07,1.25-3.43,2.32-6.5,3.49-9.53Q509.73,202.63,531,146.86c1.21-3.18,2.59-4.46,6-4.17,4.62.39,10.17-1.27,13.69.76s3.87,8.08,5.52,12.39Q577,209.71,597.6,263.6C598.07,264.82,598.49,266.06,599.15,267.9Zm-56.82-95.46c-1.17,3.18-1.86,5-2.52,6.85-4.33,12-8.68,24-12.95,36-.48,1.36-2.69,3.72,1.13,3.76,10.1.08,20.21,0,31,0C553.43,203.57,548.11,188.63,542.33,172.44Z"/><path class="cls-1" d="M654.49,216.81c0,15.47-.17,30.95.11,46.42.08,4.12-1.27,5-5,4.75a115,115,0,0,0-15,0c-3.72.26-4.66-.8-4.63-4.57.17-31,0-61.9.2-92.85,0-4.42-.9-5.94-5.59-5.7-8.46.43-17,0-25.46.18-2.85.06-3.75-.79-3.62-3.63a149.49,149.49,0,0,0,0-15c-.2-3.33,1.18-3.75,4.05-3.74q42.69.14,85.39,0c3.2,0,4.36.72,4.16,4.08a146.57,146.57,0,0,0,0,15c.12,2.7-.82,3.34-3.38,3.3-9-.14-18,.13-27-.14-3.62-.11-4.39,1.09-4.35,4.49C654.59,185.19,654.49,201,654.49,216.81Z"/><path class="cls-1" d="M466.05,205.39c0,19.48-.08,39,.07,58.44,0,3.21-.75,4.32-4.08,4.15-5.49-.28-11-.2-16.49,0-2.68.09-3.69-.51-3.68-3.48q.15-59.18,0-118.36c0-3.1,1.21-3.48,3.79-3.4,5.49.15,11,.28,16.48,0,3.52-.2,4,1.24,4,4.28C466,166.44,466.05,185.92,466.05,205.39Z"/><path class="cls-1" d="M817,205.39c0-19.15.19-38.31-.14-57.46-.07-4.64,1.37-5.54,5.53-5.25a142.92,142.92,0,0,0,15.49,0c2.68-.11,3.29.82,3.28,3.38q-.11,59.21,0,118.41c0,3-1,3.55-3.71,3.46-5.49-.19-11-.27-16.49,0-3.35.18-4.08-.94-4.05-4.13C817,244.36,817,224.88,817,205.39Z"/><path class="cls-4" d="M218.39,252.57c.46-3.9-.6-7.88.57-11.74l.93,0Z"/><path class="cls-3" d="M8.29,112.78a16.19,16.19,0,0,1,.94-7.86,83.71,83.71,0,0,1,18.28,9c26,16.79,48.2,37.63,67.94,61.34A73,73,0,0,1,111.78,210c2.41,13.86.71,26.53-9.59,37.53-9.92,10.62-19.91,21.1-31.72,29.57-16.63,11.93-33.76,23.15-49.91,35.75-2.88,2.25-6.09,4.14-7.3,7.9l-1.19.36c-2.93-10.94-3.89-22.19-4.78-33.4C3.77,243.4,5.16,199,5.42,154.59c.06-9.59.07-19.28,1.78-28.82a12.58,12.58,0,0,0,5.19,5.08c11.06,6.66,20.25,15.45,28.41,25.38-1.45-.4-2.95-.92-4.3.11s-1.4,2.5-.35,3.92c1.16,1.58,2.39,1.5,3.73.23a4.14,4.14,0,0,0,1-4.13c3.53,3.51,6.86,7.26,10.64,10.48,12.38,10.53,20.2,24.09,26.47,38.77a20.71,20.71,0,0,1-.19,17.75c-7.17,15.72-17.58,29-30.28,40.47a323,323,0,0,0-32.95,34.05c-1.63,2-3.21,3.89-2.87,6.62.2,1.63.45,3.43,2.17,4.24,1.56.74,2.86-.1,4.11-1,28.79-21.58,55.74-45.35,82.49-69.37,4.83-4.33,7-10,6.9-16.49-.2-14.62-7.42-26.3-15.88-37.36C69.71,156,42.41,133.57,12.42,114.22,11.14,113.4,9.91,112.57,8.29,112.78Zm64,105.1c0-.82,0-1.65,0-2.48-.3-8.47-4.38-12.68-12.1-12.52C52.2,203.05,47.45,208,47,216c-.26,4.45,2.24,7.88,3.24,11.84,1.07,4.28,3.3,7,8,7.46,5,.49,8.79-1.11,11.29-5.47A20.67,20.67,0,0,0,72.31,217.88ZM6,217.93h.05c0,1.82-.15,3.66,0,5.46a9.45,9.45,0,0,0,6.89,8.3c3.46,1.1,5.25-2.12,7-4.49,2.81-3.83,3.1-8.24,2.5-12.8-.78-6-3.1-7.94-9.25-7.61C7.38,207.1,6,208.62,6,215Zm35.66-38.6C42.59,173.08,38,170.2,34,167c-2.15-1.75-4.54-3-7.31-1.62a8.13,8.13,0,0,0-4.56,7.21c-.4,5.91,3,10,10.53,12.69C39.56,187.68,41.43,186.45,41.68,179.33ZM26.18,256c0,6.88,3.6,11.58,9,11.67a9.6,9.6,0,0,0,9.88-9.74c0-6.39-3.28-10.44-8.26-10.37C29.77,247.63,26.21,250.46,26.18,256Zm-9,30.26a2.89,2.89,0,0,0-3.33-2.32c-2,.2-2.84,1.57-2.61,3.47A2.23,2.23,0,0,0,14,289.51,3.52,3.52,0,0,0,17.19,286.23Zm10-49.92a2.08,2.08,0,0,0-2.62-1.87,2.91,2.91,0,0,0-2.48,3.23c.08,1.74,1.13,2.87,2.84,2.71S27.38,238.87,27.21,236.31Zm3-86.88c-1.55.41-3,.92-2.95,2.83s1.4,2.55,3,2.55a2.58,2.58,0,0,0,2.84-2.75C33.17,150.18,31.78,149.64,30.23,149.43Zm17.22,33.43a2.81,2.81,0,0,0-2.86,2.9,2.75,2.75,0,0,0,3.09,3.05c1.72-.15,2.54-1.41,2.42-3.13S49.22,182.88,47.45,182.86Zm-25.64,67A3.2,3.2,0,0,0,19,247c-1.86-.29-2.6,1-2.89,2.59a2.2,2.2,0,0,0,2.41,2.87A3.09,3.09,0,0,0,21.81,249.91Zm21.92-55a2.86,2.86,0,0,0-2.83,2.84,2.6,2.6,0,0,0,2.56,3c1.8.11,2.65-1.06,2.73-2.76A2.65,2.65,0,0,0,43.73,194.91Zm-10,32.17c-.25-1.62-1-2.87-2.72-3-1.48-.09-2.72.71-2.58,2.26a3.38,3.38,0,0,0,3,3.34C33.06,229.84,33.46,228.42,33.69,227.08ZM18.19,262.4A2.57,2.57,0,0,0,15.41,260a2.27,2.27,0,0,0-2.38,2.5c0,1.58,1,2.3,2.49,2.36S18,264.33,18.19,262.4Zm6.74-115.27a2.28,2.28,0,0,0-2.64-2.25c-1.73,0-2.84.88-2.92,2.65a2,2,0,0,0,2,2.35C23.31,150,24.33,148.83,24.93,147.13Zm23.73,26.8c-1.52.06-2.64.76-2.45,2.37a3,3,0,0,0,3,2.64c1.44.08,2.11-.78,2.08-2.13A2.63,2.63,0,0,0,48.66,173.93ZM14.21,277.41a2.33,2.33,0,0,0,2.32-2.18c.12-1.62-.88-2.43-2.41-2.54a1.87,1.87,0,0,0-2.26,2A2.54,2.54,0,0,0,14.21,277.41Zm1.84-134.67c-.3-1.35-1.06-2.08-2.47-1.8a2.54,2.54,0,0,0-2.08,2.47,1.91,1.91,0,0,0,2.22,2.09A2.61,2.61,0,0,0,16.05,142.74Zm28.36,26.11a2.11,2.11,0,0,0,2.31-2.1,2.49,2.49,0,0,0-2.47-2.61,1.83,1.83,0,0,0-2.17,2.08C42.09,167.7,42.73,168.78,44.41,168.85Zm-3.25,39.61c-.22-1.43-1-2.5-2.46-2.5s-2.29,1.14-2.24,2.59a2.18,2.18,0,0,0,2.15,2.21C40.16,210.86,41,210,41.16,208.46Zm-6.07,6.64c-1.47-.08-2.36.63-2.37,2a2.47,2.47,0,0,0,2.14,2.37,1.89,1.89,0,0,0,2.47-1.7C37.6,216,36.3,215.52,35.09,215.1Z"/><path class="cls-4" d="M13.26,320.77c1.21-3.76,4.42-5.65,7.3-7.9,16.15-12.6,33.28-23.82,49.91-35.75,11.81-8.47,21.8-18.95,31.72-29.57,10.3-11,12-23.67,9.59-37.53a73,73,0,0,0-16.33-34.76c-19.74-23.71-42-44.55-67.94-61.34a83.71,83.71,0,0,0-18.28-9,13.49,13.49,0,0,1,1-7.1c2.46.29,4.26,2.77,7,2.16l0,0c17,7.8,31.6,19.33,46.08,30.93,13.29,10.65,24.35,23.64,36.54,35.45s17.6,12,30.8,1.38a71.18,71.18,0,0,0,12.75-12.62c9.72-13.06,21.46-24.08,34.1-34.21,8.72-7,16.38-15.12,24.66-22.58a76.17,76.17,0,0,1,7.92-6c1.08-.75,2.6-1.08,3.64.16a3.13,3.13,0,0,1,0,4.15,28.58,28.58,0,0,1-4.84,4.27c-23.74,17.21-44.88,37.06-62.26,60.79a63.55,63.55,0,0,1-8.74,10.23c-20.35,18-15.24,45.31-3.36,60.16,15.26,19.07,32.38,36.75,52.21,51.27,8.68,6.36,18.45,11.22,27.73,16.76,0,5.71-1.46,11.22-2.43,16.8-19.14.23-38.31.87-57.42.54-34.44-.59-68.79-4.29-103.29-3.53-1.64,0-3.5.35-4.08-1.85-.54-2,.89-3,2.35-3.92,21.18-13,41.09-27.74,60.91-42.65,12.61-9.48,21.23-9.28,33.81.47,1.85,1.42,3.62,2.94,5.35,4.5,14.76,13.38,30.78,24.9,48.94,33.28,2.71,1.26,5.25,2.86,7.9,4.24,1.38.71,2.95,1.32,4-.38s-.51-2.78-1.61-3.65a23,23,0,0,0-4.61-3c-18.64-8.6-34.75-20.88-50-34.4-5-4.46-10.75-7.73-16.72-10.77-10.67-5.44-20.44-4.46-29.75,3-18.36,14.66-38.09,27.4-57.32,40.85-9.11,6.36-17.15,14.3-27.65,18.62a4.32,4.32,0,0,0-2.49,3Zm112.28-14.1c15.38,1,30.51,1.2,45.64,1,1.31,0,3.32.79,3.73-1.34.29-1.53-1.25-2.23-2.39-2.86-14.92-8.35-27.43-19.83-40.35-30.8-6.79-5.76-9.59-6.21-16.16-.62a372.57,372.57,0,0,1-38.07,28.08c-1.35.88-3,1.93-2.46,3.92s2.56,2.57,4.44,2.44C95.23,305.44,110.5,307.39,125.54,306.67Z"/><path class="cls-4" d="M204.75,343c-.48,4.67-2.8,8.64-5,13.55-1.16-2.88-1.82-6.07-5.31-4.27-2,1-3.54,2.78-3,5.18.69,3.25,3.23,2.62,5.55,2.15l.89.74c-1.84,3.74-3.67,7.5-6.52,10.62l-.85-.74c1.59-4.7-2.17-4.75-4.87-5.18-2.18-.34-4.29.37-4.39,3.34-.14,4.38,3,3.36,5.51,3.37a13,13,0,0,0,2.83-.61l1,1c-11.7,17.76-28.66,28-48.93,32.5a137,137,0,0,1-65.2-1.26C52,397.05,35.09,382.15,24.14,360c-2.55-5.19-5.14-10.4-6.19-16.18,18.24,1.17,36.48,2.6,54.74,3.44,31.39,1.44,62.77.32,94.13-1.26,8.29-.42,16.6-1.17,24.88-1A31.42,31.42,0,0,0,204.75,343ZM44.2,362.72c1.29-1.13,2.33.46,3.57.33,1.95-.19,4.23.12,4.58-2.55.32-2.45-1.58-3.39-3.54-4-3.89-1.23-5.33.82-4.5,6.34l-6.06-.07c.57-2.46,2.24-4.64,1.06-7.49-1-2.35-2.32-3-4.61-2.41s-2.52,2.12-2.08,4.24c.68,3.25,2.12,5.47,5.76,5.52-.36,1.74-3.43,3.3-.41,5.28a4.45,4.45,0,0,0,5.48-.21C45.4,366.29,43.7,364.34,44.2,362.72Zm59.65,5.7c2.43-.47,5.68-.76,5.89-3.93s-3.07-4.24-5.54-4.49c-2.76-.28-3.79,2.11-3.94,4.63S101.17,368.37,103.85,368.42Zm.26,31.21c1.5-.43,4.73-.51,4.91-3.85s-3.27-4.27-5.56-4.54c-2.56-.29-3.86,2.36-4,4.78C99.37,398.2,100.44,399.87,104.11,399.63Zm71.37-39.11c-.59-3.46-3.4-4.36-5.83-4.48-2.74-.14-3.65,2.5-3.68,4.9,0,2.23,1.12,3.92,3.63,3.56S174.89,363.67,175.48,360.52ZM117,367.68c4.06.29,5.24-1.22,5.15-3.77C122,361,120,360,117.46,360c-2.34.05-5.1.47-4.91,3.53S115.51,367.51,117,367.68Zm-45.55,8.08c-.79-2.74-3.42-3.39-6-3.61-2.13-.18-3.75,1.2-3.2,3.36.6,2.37,1,5.53,4.72,5.22C69.56,380.5,71.09,378.91,71.44,375.76Zm74.95,17.88c3.08.33,4.64-.7,4.78-3.41.16-2.94-1.57-4.2-4.21-4.32-2.37-.11-5.09.09-5.33,3.07C141.36,392.35,144.27,393.06,146.39,393.64Zm.51-11.87c2.64-.35,5.66-.84,5.58-4.16s-3.5-4.19-5.79-4.27-3.6,2.45-3.55,5.06S144.37,382,146.9,381.77Zm-26.3-4c-2.44-.21-4.81.2-4.8,3,0,3.77,3.28,4.34,6,4.58,2.36.2,3.45-1.53,3.39-3.94C125.17,378.2,123.09,377.65,120.6,377.73ZM105.51,387c2.29,0,4.71-.15,4.51-3.14-.23-3.52-3.31-4.36-6.06-4.64-2.34-.24-3.57,1.77-3.53,3.9C100.5,386.23,102.76,387.06,105.51,387Zm-33.72,6.82c2.2.33,4.31-.59,4.06-3.23-.32-3.34-3.29-4.38-6.17-4.55-2.43-.15-3.43,1.76-3.37,4C66.41,393.28,68.74,393.86,71.79,393.77Zm8.36-26c2.45.2,4.33-.53,4-3.44-.35-3.3-3.08-4-5.7-4.34-2.83-.32-3.83,2-3.7,4.13C75,367.15,77.32,368,80.15,367.74Zm50.61,28.34c2.39-.28,5.55.06,5.35-3.49-.16-2.84-3-3.3-5.28-3.35s-4.43.62-4.4,3.52S128.22,396.38,130.76,396.08Zm51.8-33.44c2.54.14,5.25-.52,5.34-3.18.11-3-2.75-3.63-5.4-3.65-2.41,0-4.3.51-4.26,3.5S180.12,362.85,182.56,362.64ZM93.12,360.8c-2.74,0-4.82.25-4.88,3.33-.07,2.91,1.49,3.64,4.09,3.57s5.56-.47,5.58-3.49C97.92,361.59,95.17,360.85,93.12,360.8Zm-36.89,15c2.22.17,3.15-1.32,3-3.66-.28-3.6-3.33-3-5.56-3.37-1.89-.29-4.24.43-4,2.52C50.1,374.4,52.66,375.79,56.23,375.82Zm103.34,5.94c-2.35.16-4.93.19-5.19,3.29-.18,2.13.66,4,3.39,3.7s6.09-.47,6.24-4.16C164.1,382.11,161.57,381.93,159.57,381.76ZM79.37,378c-1.08-.06-3.56.84-3.53,3.16,0,2.84,2.74,3.66,5.41,3.74,2.4.07,4.3-.38,4.26-3.36C85.47,378.12,83,378.23,79.37,378Zm-38.48-8.11c-2.58-.27-5.35.25-5.15,3.07.18,2.64,3,3.69,5.66,3.73,2.22,0,3.77-.67,3.91-3.34C45.49,369.81,43.35,369.65,40.89,369.85Zm115-10.52c-2.21.08-4.52.94-4.27,3.51s2.73,3.67,5.19,3.66c2.27,0,3.47-1.22,3.5-3.79C160.31,359.47,158.25,359.43,155.85,359.33ZM69,360.92c-2.57-.17-4.75.6-4.73,3.25,0,2.85,2.35,3.6,4.92,3.64,2.38.05,3.85-.89,3.83-3.4C73,361.7,71.51,360.55,69,360.92Zm23.23,19.9c-1.46.32-3.86,1-3.78,3.93.06,2.24,2.17,2.83,4,2.78,2.49,0,4.75-1,4.61-4C96.94,381.35,95.21,380.61,92.2,380.82Zm50.69-14.7c2.06-.13,4.07-.59,4.2-3.15s-1.72-3.6-3.84-3.56-4.65.45-4.87,3.19C138.15,365.56,140.71,365.73,142.89,366.12Zm18.75,11c2.1-.1,4.15-.59,4.35-3.07s-1.64-3.66-3.78-3.65-4.59.34-4.89,3.11C157,376.5,159.54,376.64,161.64,377.08Zm-27.47,7.7c2.37-.15,4.31-1,4.16-3.75-.11-2.14-1.61-3.27-3.73-3.09-2.43.21-4.88,1.17-4.87,3.93C129.74,384.23,132,384.84,134.17,384.78ZM49.7,376.72c-2.53,0-4.32.89-4.16,3.34s2.1,3.49,4.2,3.36,4.61-.47,4.44-3.48S51.65,376.91,49.7,376.72Zm32.52,19.2c1.88,0,4-.5,4.25-3.23a3.19,3.19,0,0,0-3.76-3.56c-2.31.23-4.79,1.2-4.86,4C77.79,395.47,79.85,395.87,82.22,395.92Zm90.72-20.19c-2.18.15-4.56.27-4.7,3.17s2.43,3.31,4.46,3.49,4.13-.94,4.2-3.27S175.35,375.62,172.94,375.73Zm-49.8,19.39c-.32-2.68-2.42-3.35-4.58-3.61s-4.06.41-4.27,3,1.63,3.61,3.73,3.7S122.36,397.8,123.14,395.12Zm8-34.32c-1.5-.07-3.53.65-3.46,2.73.1,3,2.63,4,5.27,4.1a2.93,2.93,0,0,0,3.27-3.44C136,361.35,134,360.82,131.16,360.8ZM57.6,366c2.28-.11,4.43-.52,4.56-3.39a3.16,3.16,0,0,0-3.44-3.44c-2.37,0-4.85,1.05-5.19,3.71S55.52,365.82,57.6,366ZM178,369.9c-.26-2.57-2.17-3.19-4.2-3.36-2.27-.2-4.39.24-4.6,3.15-.16,2.32,1.37,3.37,3.34,3.46C175,373.26,177.16,372.57,178,369.9ZM63.74,385.39c-.66-2.57-1.88-4.67-4.81-4.9a2.84,2.84,0,0,0-3.26,3c0,3,2.21,4.33,4.81,4.79C62.46,388.6,63.48,387.3,63.74,385.39Zm28,5.49c-1.28.17-3.5.47-3.42,3.12.11,3.06,2.67,3.53,5,3.57,2,0,3.72-1.21,3.64-3.27C96.85,391.78,95,390.64,91.72,390.88Z"/><path class="cls-4" d="M32,36.73A65.7,65.7,0,0,1,70.52,9.31C101.8,1.14,133,1.63,163.36,14c19.21,7.86,32,22.55,41.31,40.67a17.63,17.63,0,0,1,1,3.27c-2,.11-2.62,2.72-5.18,2.35-3.92-.58-8-.17-11.95-.54-41-3.86-82-2.53-123.06-.84-15.71.64-31.4,1.93-47.09,2.93l4.28-9.6c1.12,2.72.92,6.39,4.79,4.8,2.31-.95,4-2.9,3.4-5.38-.91-3.52-3.71-3-7.33-1a59.17,59.17,0,0,1,7.15-12.35l.78.8C30.92,44,34.26,44,37.54,44c2.41,0,3.81-1.14,3.54-3.67-.44-4.11-3.61-3-6.11-3a7.34,7.34,0,0,0-1.91.48ZM169.1,48.06c1.08,3.1,3,5.33,6.54,4.79,3.76-.56,2.3-3.69,2.54-5.94,1.67-.83,3.33,0,5,0,.46,2.47-1.75,4.82-.07,7.46,1.13,1.79,2.1,2.91,4.32,2,2-.77,2.59-1.83,2.2-4.19-.67-4-2.5-5.82-6.57-5.21.67-1.85,4.29-3.31,1.38-5.58-1.9-1.47-1.19-1.66.19-2.47,2.1-1.23,2.92-2.92.74-4.71-2.37-2-5.41-2.71-7.69-.51-1.79,1.73-1.62,4.28,1.36,5.52.59.25,2.15.84,1,1.33-3.6,1.53-1.56,4.19-1.76,6.39-3.3-1.14-6.52-1.64-9.31,1.19-.88-.69.05-1.52-.16-2.22-1-3.14-3.43-3.32-6-2.62-2.22.6-3.44,2.35-2.44,4.56,1.23,2.74,3.55,2.3,5.92,1.42C167.28,49,167.64,47.28,169.1,48.06ZM75.61,27.21c-2.42.53-5.67.85-5.94,4s3.06,4.28,5.49,4.57c2.76.34,3.83-2.11,4-4.61C79.33,28.8,78.28,27.35,75.61,27.21Zm43.46,13.71c-3.54.18-6.5.79-6.54,4s3.41,4.12,5.76,4.27c2.54.15,3.77-2.35,3.8-4.88S120.81,40.71,119.07,40.92Zm36.7-4c2.64.17,4.5-.29,4.33-2.71-.18-2.65-1.09-5.54-4.12-5.86a4.52,4.52,0,0,0-5.12,4.31C150.71,36.09,153.81,36.4,155.77,36.88Zm-32.9-23.6c-.35-2.15-1.05-4.11-3.61-3.81s-5.67.4-6,3.85,3.11,4.12,5.4,4.48C121.59,18.27,122.14,15.41,122.87,13.28Zm27.94,1.91c-2.51-.16-4.57.72-4.38,3.41.22,3.16,2.82,4.11,5.63,4.4s4-1.45,3.94-3.84C155.87,16,153.49,15.27,150.81,15.19Zm-45.2,33.75c2.09.31,4.3-.59,4-3.53-.29-3.22-3.27-3.9-5.89-4.15-2.37-.23-3.51,1.3-3.56,3.68C100.13,48.33,102.19,49.08,105.61,48.94ZM77.21,23.08c1.05,0,3.46-.25,3.36-3.18-.12-3.75-3.39-4.28-6.14-4.49-2.42-.18-3.4,1.75-3.3,4.05C71.26,22.59,73.36,23.2,77.21,23.08ZM122,26c-.49-2.58-2.13-3.95-5.07-3.92-2.27,0-4.55.08-4.58,3.08,0,3.41,2.65,4.22,5.28,4.75C120.39,30.44,121.34,28.53,122,26Zm-20.5,5.84c2.33-.47,5.15-.34,4.88-3.75-.25-3.14-2.73-3.77-5.35-4.07-2.83-.32-4.08,1.21-4.07,3.72C96.92,30.63,99,31.58,101.46,31.81Zm40.7,9.4c-2.35-.13-4.24.81-4.16,3.22.12,3.58,2.95,4.46,5.95,4.65,2.69.17,3.47-1.7,3.4-3.87C147.25,41.9,144.78,41.37,142.16,41.21ZM90.57,19.91c3.27,0,5.22-.78,5.2-3.53S94.08,12.85,91.45,13s-5.54.37-5.39,3.55C86.19,19.15,88.93,19.84,90.57,19.91ZM62.88,27.77c1.92-.87,5-.52,5.05-3.69,0-1.9-.7-4.39-3.41-3.77-2.51.57-6.22.26-6.23,4.28C58.29,27.24,61,27,62.88,27.77ZM52.19,44.91c-2.43.42-5.41.79-5.35,3.91s3.41,4.27,5.82,4.32c2.59.06,3.62-2.45,3.58-5.09S54.57,44.72,52.19,44.91ZM40,46.7c-2.39.27-5.58-.2-5.56,3.32,0,2.91,2.93,3.43,5.15,3.5s4.75-.59,4.54-3.86C43.91,47,42.21,46.45,40,46.7ZM141,30.94c2.77.09,5.58-.16,5.3-3.21-.26-2.78-3.08-3.55-5.7-3.62-2.31-.06-3.9,1-4,3.4C136.51,30.77,138.77,31.13,141,30.94ZM129.44,48.59c2.08-.39,4.48-.34,4.67-3.33.18-2.82-1.35-3.82-4-3.64-2.46.17-5.54-.1-5.71,3.22C124.25,47.82,127.25,48,129.44,48.59ZM166.9,33.16c-3-.15-3.92,1.58-3.87,3.75.09,4,3.76,3,5.94,3.65,1.42.44,3.67-.64,3.53-2.56C172.24,34.62,169.38,33.72,166.9,33.16ZM152.77,48c2.36.06,5.13.27,5.27-2.91.13-2.85-2.37-3.75-4.77-3.9-2.18-.14-3.87.77-4,3.34S150.15,48.34,152.77,48ZM129.65,11.68c-1.89-.08-3.87.33-4.27,2.78s1.34,3.71,3.49,3.9,4.66-.13,5.13-2.74C134.53,12.73,132.05,12.24,129.65,11.68ZM54.22,30.28c-.32-2.53-2-3.18-4.21-3.29-2.36-.12-4.55.32-4.6,3.18,0,2.38,1.8,3.59,4,3.5S53.65,32.9,54.22,30.28Zm11.6,19.53c2.57.29,4.77-.75,4.83-3.14C70.72,44,68.38,43,65.8,42.91c-2.3-.07-3.85.64-3.85,3.28S63.13,50.2,65.82,49.81ZM80,43c-2.34-.06-4.32.28-4.68,2.83s1.09,3.8,3.4,3.94c2.47.14,5-.63,5.23-3.39C84.12,44.08,81.85,43.34,80,43Zm78.45-19c.88,2.22,1.91,4.59,4.85,4.78,2.24.15,3.39-1.45,3.18-3.5-.27-2.65-2.14-4-4.72-4.25Q158.75,20.72,158.42,24Zm-14.06-7.63c-.15-2.52-1.74-3.17-3.72-3.27-2.61-.13-4.81.85-5,3.62-.1,1.9,1.37,3.3,3.6,3.23C141.82,19.86,143.72,18.9,144.36,16.37Zm-10.29,8.38c-.35-2.08-1.79-2.86-3.83-2.87-2.23,0-4.5.09-4.94,2.9-.39,2.5,1.25,3.86,3.44,3.85A5.31,5.31,0,0,0,134.07,24.75ZM89.08,31a3.65,3.65,0,0,0,3.37-3.34c.25-2.59-2-3.24-4-3.34-2.31-.11-4.5.92-4.65,3.45C83.66,30,85.34,31.25,89.08,31ZM53.23,39.16A3.64,3.64,0,0,0,49,36c-2.29.15-4.62.83-4.61,3.47s2.48,3.26,4.71,3.29A3.74,3.74,0,0,0,53.23,39.16Zm41.26,5.92c-.64-2.65-2.86-3.41-5.21-3.47-2,0-3.59,1.07-3.35,3.34.31,2.93,2.55,3.69,5,3.48C92.74,48.27,94.59,47.67,94.49,45.08ZM103.38,11c-1.78.2-4,.53-4,3.1,0,3,2.6,3.59,5,3.67,2,.07,3.71-1,3.71-3.19C108,11.93,106.13,11,103.38,11ZM172.7,26c-2.67.1-4.82.66-4.7,3.16.14,2.91,2.74,3.52,5.08,3.56,2,0,3.68-1.21,3.58-3.31A3.33,3.33,0,0,0,172.7,26ZM61.32,32.08c-2.53-.11-4.67.3-5,3.09-.23,2.18,1.18,3.45,3.23,3.65,2.47.24,4.95-.39,5.43-3.14C65.44,33.13,63.07,32.61,61.32,32.08Z"/><path d="M8.29,112.78c1.62-.21,2.85.62,4.13,1.44,30,19.35,57.29,41.75,79.11,70.26,8.46,11.06,15.68,22.74,15.88,37.36.1,6.53-2.07,12.16-6.9,16.49-26.75,24-53.7,47.79-82.49,69.37-1.25.94-2.55,1.78-4.11,1-1.72-.81-2-2.61-2.17-4.24-.34-2.73,1.24-4.65,2.87-6.62a323,323,0,0,1,33-34.05c12.7-11.46,23.11-24.75,30.28-40.47A20.71,20.71,0,0,0,78,205.61c-6.27-14.68-14.09-28.24-26.47-38.77-3.78-3.22-7.11-7-10.64-10.47a1.49,1.49,0,0,0-.12-.14c-8.16-9.93-17.35-18.72-28.41-25.38a12.58,12.58,0,0,1-5.19-5.08A45.77,45.77,0,0,1,8.29,112.78Z"/><path d="M215.39,291.33a9.25,9.25,0,0,1-5.49-2.12c-23.88-18-45.93-38-65.11-61-2.13-2.55-3.9-5.39-5.84-8.1-8.09-11.31-7.49-22.54.24-33.77,18-26.15,37.59-50.89,61.81-71.66,3-2.6,5.79-5.5,8.71-8.24s5.72-2,6.3,2,.47,7.65-2.68,11.1c-17.83,19.55-32.09,41.54-44.51,64.85-5,9.39-5.47,18.53-2.08,28.31,8.56,24.63,23.68,44.46,44,60.48,2.38,1.87,4.64,3.78,5.89,6.62C216,283.63,217,287.63,215.39,291.33Z"/><path class="cls-5" d="M18.35,61.88C34,60.88,49.73,59.59,65.44,59c41-1.69,82.06-3,123.06.84,4,.37,8,0,11.95.54,2.56.37,3.18-2.24,5.18-2.35a8.08,8.08,0,0,1,2.55,7l0,0c-4.37.8-5.5,4.9-7.61,7.84-1.17,1.63.66,2.16,2.1,2,2-.2,3.9-.52,5.84-.82,2.82-.45,3.94.92,3.88,3.57-25.12,4-50.45,4.79-75.83,5.68-17.76.62-35.5,2.18-53.28,1.55-21.91-.78-43.81-1.93-65.72-3a28.12,28.12,0,0,1-4.38-.89c0-3.46,1.56-4.39,4.77-3.27,1.19.41,2.93.81,3.69-.41.91-1.49-.78-2.51-1.73-3.1C14.27,70.65,17.05,66.19,18.35,61.88Zm23,11.2-1,1c-1.68,1-3.73,1.82-2.39,4.39.32.61,10.14.84,10.24.3a3.82,3.82,0,0,0-2.9-4.81c-.17-1.58-.83-2.89-2.57-2.9C41.55,71,41.2,72,41.33,73.08Zm127.49-5,1.31,1.33c.39,1.3,1,3.05,2.53,2.28a8.34,8.34,0,0,0,4.23-6.92c.17-2.67-2.72-1.58-4.29-1.69-2.87-.2-5.77-.06-9.67-.06C165.26,65.42,166.37,67.46,168.82,68.05Zm-9.22,4.27c-2.91.56-2.83,3.15-4.09,5.46,4.73.13,9,.92,13.14-1A13.91,13.91,0,0,0,164,70.32c-2.79-2.43-4.46-1.88-4.48,2l-.27-.33Zm-97.38,1.5-1,1C59,75.42,57.53,77.27,58,79s2.9.59,4.46.83a6.1,6.1,0,0,0,1.48,0c2.89-.26,7.68,1.26,8.27-.71.9-3-3.34-5.06-5.55-7.33C63.75,68.87,62.45,70.36,62.22,73.82Zm-5-2.92c1.08-1.25,2.17-2.48,3.21-3.74.61-.73,1.7-1.37,1.19-2.48S59.91,63.93,59,64c-4,.28-7.88.67-11.82,1-.68.06-1.32.21-1.51,1-.24,1,7,9.7,8,9.49s1.39-1.28,1.57-2.29Zm16,1c3.83,5.1,4,4.93,8,.18,2.29-2.69,3-7.33,7.94-7.18,1.82,1.7,3.65,3.39,5.45,5.12,6.12,5.88,5.06,7.24,10.65-1.28,3.82-5.8,4.94-6,10.41-1.63,7.31,5.8,7.4,5.9,14.44-.63,2.77-2.57,5-2.75,7.64-.09,2.34,2.37,4.8,4.61,7.14,7,4.11,4.13,4.42,4.18,7.85-.78,1.87-2.7,5-6,3.6-8.76-1.11-2.17-5.66-1.67-8.78-1.74q-29.2-.69-58.38,1.12c-7.54-.87-14.89,1-23.43.94,3,2.55,4,5.32,6.48,6.76ZM20.81,67.09c.26,2.29,1.46,3.25,2.45,4.33,6.82,7.38,8.28,7.21,13.52-1.68.71-1.22,2.11-2.57,1-4s-2.8-.82-4.2-.63C29.37,65.63,25.17,66.39,20.81,67.09Zm161,9.81c3.24.67,6.25-.66,9.38-.94,1.12-.1,2.27-.69,1.36-1.83-2.49-3.1-4.91-6.8-8.87-7.7-3.29-.74-3.49,3.31-4.95,5.31-.95,1.3-2.69,2.78-1.92,4.31C177.79,78,180.15,76.54,181.83,76.9Zm-59.61,1.54c-3.37-2.89-6.3-5.47-9.3-8a2,2,0,0,0-3.08.47c-2,2.83-4.86,5.17-5.88,8.88A63,63,0,0,0,122.22,78.44ZM81.55,79.5c.24.09.69.46,1.1.42,4-.41,7.78,1.49,11.75.72.8-.16,1.74-.63,1.58-1.6-.43-2.63-2.26-4.35-4.32-5.76-1.31-.9-2.85-2.18-4.46-.75C85.12,74.37,83,76.22,81.55,79.5Zm45.2-.61c4.91,0,9.49,0,14.06,0,1.57,0,2.66-.35,1.44-2.34-4.8-7.79-10.45-7.76-14.85.15A12.52,12.52,0,0,0,126.75,78.89ZM190.2,64l-1,1.54c1.35.93,2.74,1.81,4,2.8s2.32,2.39,3.79,1c1.23-1.18,3-2.67,2.55-4.44s-2.6-.74-4-.86C193.79,63.93,192,64,190.2,64Z"/><path class="cls-5" d="M204.75,343a31.42,31.42,0,0,1-13.05,2c-8.28-.16-16.59.59-24.88,1-31.36,1.58-62.74,2.7-94.13,1.26-18.26-.84-36.5-2.27-54.74-3.44-1.65-2.23-2.52-4,1.64-4,2.23,0,4.31-1.48,6.66-.94.35.3.51,1.29,1.23.36l-1.27-.32c-2.7-5-4.49-5.43-8.63-2.12-.53.42-1.11,1-1.68.54a2.61,2.61,0,0,1-.65-1.75c-.13-3.55,2.67-5.34,5-6.87,2.63-1.72,3.59,1.38,4.77,2.91a10.76,10.76,0,0,0,4,3.63c2.57,1.16,4.23.77,4-2.53l0,.06c2.3.56,3.14-1.43,4.41-2.6.69-.62,1.73-1.3,1.26-2.44s-1.71-.78-2.63-.8c-6.94-.14-13.8-1.09-20.68-1.89-2.74-.32-3.29-1.62-3.25-3.85l1.19-.36,7.07.43c5.61.32,11.16,2.37,16.85.66l4.77,1a18.43,18.43,0,0,0,3.36.86c14.7,1.07,29.39,2.73,44.11,3,27.06.49,54.14.17,81.22.12,1.92,0,4,.51,5.68-1.09h.07c10.28,1.12,20.52,1.54,30.57-1.68l3-.43.52.52c.34,5.49-4.47,4.6-7.5,6,.43,1.3,1.78,1.3,2.59,2,1.07.91,2.87,1.52,2.07,3.42s-2.16.65-3.38.45c-1.73-.29-2.72.73-3.37,2.28C201.79,340.13,209.49,336.62,204.75,343Zm-55.56-7.18,1.07,1.07,0,0c.86,1.64,2.2,3,3.8,1.4s3.92-3.31,3.51-5.56c-.31-1.63-2.87-.65-4.43-.7a5.4,5.4,0,0,0-1.82.65l-2,.28c-.77.16-1.66.19-1.76,1.24-.13,1.29.77,1.58,1.78,1.73Zm-20,0,1.18,1c4.19,0,4.46-.41,2.75-4.16a14.55,14.55,0,0,0-3.23-.76c-1.33,0-3.48-.83-3.81.71-.4,1.84,1.06,3.26,3.27,3.22Zm-6,6.35c4.87-2.2.82-3.52-.51-5.11-3.79-.12-4.44,3-6,5.54C119.14,342.92,121.21,343.17,123.19,342.08Zm-10-9.34-1.94-.09c-2.36-1.43-4.76-.83-8.41-.52,3.11,1.84,4.46,3.95,6.89,4.66.9,2.61,2.65,1.37,4.22.94,2.66-1,3.57-3.23,4.74-5.71C116.48,331.9,114.69,331.28,113.17,332.74Zm-72.83,7.18c2.72,0,3.56-1.7,2.73-3.81C42,333.26,40,335,38.33,335.78c-1.71,1-4.25,2.33-3.45,4C35.79,341.75,38.44,341.19,40.34,339.92Zm18.41-3c-2.32.58-3.48,2.16-3.93,4.53,2,.53,3.82,1,5.53-.48,1.43,0,3.18.21,3.3-1.81a4,4,0,0,0-1.1-3C61.27,335.13,59.88,335.9,58.75,336.89Zm8.62-2c1.46,1,2.89,1.24,4.25-.18,2.13-.45,4.23-2,3.9-3.77-.39-2.14-3.09-.72-4.74-1.08a4.59,4.59,0,0,0-1.48,0c-1.55.19-3.81-.92-4.47.79S65.66,334,67.37,334.92Zm37.37,3.92c-2.9-2.93-3.39,1.37-5.19,1.73-1.71.53-3.37,1.14-4.45,3.18,4.69-.36,9.27,1,13.94-1.4C107.72,340.69,106.66,339.28,104.74,338.84Zm-9.25-1.18c1.48-.68,3.16-1.28,2.7-3.41s-1.83-2.91-3.94-2.44c-2.68-1.75-5.47-.8-8.82.05,1.24,1.94,3.07,3,4.67,4.42S93.07,339.57,95.49,337.66Zm96.57-1.8c1,.77,1.69,2.94,3.46.91,3.19-.48,3.64-3.31,5.39-5.63H186.72C187.94,333.77,190.05,334.75,192.06,335.86Zm-138.87-.41,1.08-1.55c1.59-1,3.75-2.26,3.38-3.9-.51-2.22-3.11-.8-4.76-1.17-.64-.14-1.33,0-2-.13-2.38-.35-5.95-2.24-6.84-.13-1,2.4,2.18,4.73,4.12,6.71A13.24,13.24,0,0,0,50,337C51.92,338.33,52.65,337.05,53.19,335.45Zm37.07,7.34.9-1.35c-2-1.71-4.06-3.32-5.9-5.17-4.86-4.89-5.59-4.87-9.6.88-.56.81-1,1.73-1.47,2.59-1.15,2-.78,3.08,1.72,3.06C80.7,342.76,85.48,342.79,90.26,342.79ZM190.51,340l-7.44-7.29a1.22,1.22,0,0,0-1.74-.24c-2.33,1.89-5,4.16-4.73,7.07.21,2.26,3.38,1,5.19,1.1C184.36,340.77,187,341.24,190.51,340Zm-42.3,1.84c-2.08-3.17-3.8-5.07-7-5-2.57.08-4.43,1.86-4.42,3.77,0,2.19,2.6,1,4.06,1.15C143,342,145.25,341.88,148.21,341.88Zm13.71.1c1.5-1,4.73,1.21,4.57-1.67-.1-1.81-2.74-4.6-4.56-4.89-2-.32-4,2.59-4.13,4.76C157.65,343.09,160.52,341.1,161.92,342Zm11.94-7.63c-.84-1.15-1.79-2.41-3.29-2.34-.87,0-1.7,1-2.55,1.54,1,1.07.59,3.39,3,3.22C172.56,336.66,173.08,335.41,173.86,334.35Z"/><path class="cls-3" d="M176.32,325.7c-1.65,1.6-3.76,1.09-5.68,1.09-27.08,0-54.16.37-81.22-.12-14.72-.26-29.41-1.92-44.11-3a18.43,18.43,0,0,1-3.36-.86c2.17-2.39.62-4.31-1-6-1.35-1.43-2.84-.4-3.9.6-1.49,1.39-2.14,3,.09,4.44-5.69,1.71-11.24-.34-16.85-.66a4.32,4.32,0,0,1,2.49-3c10.5-4.32,18.54-12.26,27.65-18.62,19.23-13.45,39-26.19,57.32-40.85,9.31-7.43,19.08-8.41,29.75-3,6,3,11.69,6.31,16.72,10.77,15.24,13.52,31.35,25.8,50,34.4a23,23,0,0,1,4.61,3c1.1.87,2.68,1.89,1.61,3.65s-2.6,1.09-4,.38c-2.65-1.38-5.19-3-7.9-4.24-18.16-8.38-34.18-19.9-48.94-33.28-1.73-1.56-3.5-3.08-5.35-4.5-12.58-9.75-21.2-10-33.81-.47-19.82,14.91-39.73,29.68-60.91,42.65-1.46.9-2.89,1.89-2.35,3.92.58,2.2,2.44,1.89,4.08,1.85,34.5-.76,68.85,2.94,103.29,3.53,19.11.33,38.28-.31,57.42-.54-.07,2.6-.55,4.11-3.7,2.34-1.58-.89-3.82-.68-4.48,1.66-.73,2.58,1,3.14,3.12,3.15-10.05,3.22-20.29,2.8-30.56,1.68a9.07,9.07,0,0,0,.86-1.2c1.12-2.26.43-4-2-4.52-1.69-.39-3.89-.7-4.65,1.55s1.22,3.2,2.81,4A8.1,8.1,0,0,0,176.32,325.7Zm-66.39-.8c1.19,0,2.91-.35,2.68-2.57-.24-2.41-2.35-3-4.33-3.17s-3,1.26-2.88,3.13C105.62,324.56,107.33,325.08,109.93,324.9Zm32.84-5.5c-1.84.45-4.28.55-4.28,3.16,0,2.21,2.25,2.85,3.95,3.09,2.36.33,3.08-1.67,3.2-3.54C145.74,320.41,144.7,319.35,142.77,319.4Zm-84.13,3.33c1.75,0,3.59-.36,3.63-2.37,0-2.26-2-2.77-3.86-2.88s-3.27.46-3.18,2.72S56.89,322.71,58.64,322.73Zm69.6-.49c-.07-2.44-1.77-2.43-3.52-2.36s-3.65.58-3.47,2.66c.2,2.33,2.36,2.43,4.25,2.39C127.23,324.9,128.38,324.21,128.24,322.24Zm61.6,3.4c1.21-.84,3.2-.87,3.16-2.83s-1.65-2.79-3.42-2.81c-1.58,0-3.19.57-3.1,2.46S188.51,324.8,189.84,325.64ZM76.07,322.73c1.34-.23,3-.65,3-2.45.1-2.26-1.73-2.52-3.47-2.53s-3.1.66-2.93,2.52C72.86,321.93,74.12,322.81,76.07,322.73ZM90,324.4a3.83,3.83,0,0,0,3.36-3.64,1.76,1.76,0,0,0-2-2.12c-2,.12-3.49,1.15-3.79,3.19C87.24,323.47,88.57,324,90,324.4Zm70.35-2.35c-.43-1.81-1.79-2.24-3.34-2.07-1.82.2-3.11,1.15-2.83,3.19.23,1.61,1.53,2,2.94,1.82C158.83,324.81,160.17,324.07,160.31,322.05Z"/><path class="cls-4" d="M218.7,199.69c-3.7,2.16-7.29,2.06-10.32-1.08-2.8-2.88-3.39-10.49-1.31-14a30.79,30.79,0,0,1,2.56-3.63c3.38-4.21,5.7-4.19,9.46,0C219.2,187.21,219.55,193.46,218.7,199.69Z"/><path class="cls-4" d="M33,332.65c-1.54,1.09-2.93,1.28-4.22-.45-.78-1-1.2-2.05-.33-3.12s1.92-1.68,3-1.11c1.94,1,2,2.84,1.46,4.74Z"/><path class="cls-4" d="M30.64,38.35,32,36.73l1.08,1-1.64,1.38Z"/><path class="cls-4" d="M197,359.56c.21-.49.61-.81,1-.44.17.14-.09.77-.15,1.18Z"/><path class="cls-4" d="M191.34,370.92c-.27.4-.54.81-.82,1.21-.31-.35-.63-.69-1-1l.92-.92Z"/><path class="cls-5" d="M210,323.58l.76-.28-.24.8Z"/><path class="cls-5" d="M208.18,65l.44.18-.41-.21Z"/><path class="cls-4" d="M117.19,168.38a11.17,11.17,0,0,1-7.58-3.3c-7-6.42-14.2-12.61-20.87-19.34a296,296,0,0,0-47.91-39c-1-.64-1.95-1.28-2.88-2-1.46-1.11-3.31-2.32-2.56-4.38.67-1.84,2.8-1.4,4.42-1.52,19.1-1.36,38.24-1.59,57.37-1.9,29.12-.46,58.24-.33,87.3-2.6,2.37-.18,4.7.27,5.86,2.84s.11,4.56-1.72,6.24c-5.52,5.06-11,10.16-16.68,15-12.76,11-25,22.48-35.61,35.6a62.75,62.75,0,0,1-12.26,11.66A11.79,11.79,0,0,1,117.19,168.38Zm46.67-62.81c-2.48.14-5,.33-7.44.43-32.24,1.32-64.54.29-96.77,2-1.5.08-3.71-.85-4.31,1.33-.54,2,1.4,2.84,2.82,3.63,15.78,8.81,29.56,20.28,43.18,32,12.88,11.1,15.84,10.91,27.67-1.15a212.93,212.93,0,0,1,24.82-21.57c4.39-3.29,8.71-6.68,13-10.11,1.41-1.14,2.9-2.48,1.74-4.64C167.55,105.67,165.71,105.44,163.86,105.57Z"/><path class="cls-4" d="M195.17,204.51c1.63,6.23-5.7,11.93-15.26,9.07-8.91-2.67-11.19-8.42-7.44-17.06.92-2.11,1.27-4.47,2.21-6.57,2.86-6.47,10.32-7.44,14.73-2C193.19,192.59,194.76,197.09,195.17,204.51Z"/><path class="cls-4" d="M202,162.17c-6.37.09-10.22-4.95-8.24-11a16.37,16.37,0,0,1,10.34-10.68,6,6,0,0,1,7.46,2.37c3.06,4.22,1.47,8.62-.45,12.72C209.38,159.34,206.63,162.14,202,162.17Z"/><path class="cls-4" d="M213.55,236.09c-.14,2.63-.24,4.94-1.22,7.13-2,4.38-4.8,5.73-8.66,4-4.21-1.9-6.77-7.09-4.95-10.58a28.32,28.32,0,0,1,3.89-5.15c2.14-2.47,4.73-3.59,8-2.2S214,233.43,213.55,236.09Z"/><path class="cls-2" d="M105,92.16c-.9,2.22-2.73,2.65-4.79,2.64-1.82,0-2.82-1.08-2.67-2.75.2-2.3,2.1-2.84,3.95-2.63C103,89.6,104.7,90.13,105,92.16Z"/><path class="cls-2" d="M51.85,97c-2.09,0-3.61-.71-3.55-3.07,0-1.71,1-2.91,2.79-2.75,2,.18,4,.89,4.19,3.36S53.59,97,51.85,97Z"/><path class="cls-2" d="M83.72,95.89c-2.33.18-3.44-.78-3.4-2.79,0-1.79.87-3.36,2.82-3.32s4.19.55,4.13,3.14C87.22,95.14,85.22,95.56,83.72,95.89Z"/><path class="cls-1" d="M203.93,91.9c-2.33-.23-3.18-2.07-3.54-4-.31-1.71,1.19-2.4,2.54-2.33,1.95.1,4.24.34,4.3,3C207.27,90.52,205.82,91.45,203.93,91.9Z"/><path class="cls-2" d="M120.38,91.86c-.18,2-1.34,3.06-3.3,2.67-1.75-.34-3.82-.84-3.75-3.2.07-2.57,2.25-2.46,4-2.51C119.34,88.77,120.41,89.82,120.38,91.86Z"/><path class="cls-2" d="M17.24,100c-.94-1.87-4.36-3.88,0-5.55,1.72-.67,4.33-1.11,4.88,1.64.81,4-2.86,3.07-4.89,3.88Z"/><path class="cls-2" d="M201.14,253.93c-.24,2.1-1.72,2.19-3.3,2.07-2-.15-3.72-.9-3.55-3.24a2.62,2.62,0,0,1,3.25-2.35C199.39,250.7,201,251.72,201.14,253.93Z"/><path class="cls-2" d="M217.24,163.79c-.18,1.85-1.9,2.77-4,2.91a2,2,0,0,1-2.23-2.59,3.86,3.86,0,0,1,4-3.61C216.64,160.5,217.33,161.61,217.24,163.79Z"/><path class="cls-2" d="M167.15,88.91c1.69,0,3.53-.14,3.72,2.16.17,2.13-1.28,2.82-3.16,2.85s-4-.62-4.13-2.65S165.38,88.86,167.15,88.91Z"/><path class="cls-2" d="M186.33,88c1.34-.08,3,0,3.1,2.38.06,1.9-1.05,2.64-2.83,2.65s-4-.23-4.22-2.49C182.21,88.4,184.11,88,186.33,88Z"/><path class="cls-2" d="M150.17,89.45c1.48.15,2.89.55,3,2.42s-1.13,2.67-2.7,2.82c-1.74.16-3.52-.49-3.71-2.35C146.56,90.32,148.5,89.9,150.17,89.45Z"/><path class="cls-2" d="M195.13,230.81c-.06,1.72-.78,3-2.63,3-2,0-3-1.34-3.15-3.18s1-2.69,2.74-2.83C194.29,227.6,195,228.88,195.13,230.81Z"/><path class="cls-2" d="M35.78,92.29c1.55.47,3.45.65,3.56,2.78.1,1.92-1.46,2.49-3,2.58a2.75,2.75,0,0,1-3.2-2.41C32.91,93.34,34.15,92.63,35.78,92.29Z"/><path class="cls-2" d="M210.7,262.27a3.33,3.33,0,0,1-3.71,2.52c-1.63-.13-2.94-.89-2.65-2.76s1.92-2.63,3.61-2.63S210.54,260.58,210.7,262.27Z"/><path class="cls-2" d="M206.11,202.16c.1,2-.7,3-2.28,2.92-2-.07-3.46-1.06-3.6-3.25-.12-1.73.68-2.93,2.53-2.89C205,199,205.52,200.88,206.11,202.16Z"/><path class="cls-2" d="M204.88,212.63c-.49,1.67-1.34,3.12-3.29,3.12a2.34,2.34,0,0,1-2.52-2.91,3,3,0,0,1,3.38-2.88A2.56,2.56,0,0,1,204.88,212.63Z"/><path class="cls-2" d="M134.86,94.56c-1.37-.06-2.41-.68-2.37-2a3.55,3.55,0,0,1,3.19-3.77c1.51-.2,2.6.47,2.6,2.18C138.28,93.22,136.56,93.92,134.86,94.56Z"/><path class="cls-2" d="M72.08,93.16a2.83,2.83,0,0,1-2.89,2.77c-1.53.15-3.34.15-3.58-1.72S67,91.32,68.71,91A2.66,2.66,0,0,1,72.08,93.16Z"/><path class="cls-1" d="M192,244.88c-2-.17-3.38-1.15-3.63-3.29a2.17,2.17,0,0,1,2.29-2.63,3.51,3.51,0,0,1,3.69,3.33C194.55,243.85,193.73,244.81,192,244.88Z"/><path class="cls-2" d="M201.3,191.92c-2.11-.11-2.62-1.52-2.53-3.1.08-1.38.76-2.76,2.45-2.48,1.47.24,3,.87,2.88,2.83A2.7,2.7,0,0,1,201.3,191.92Z"/><path class="cls-2" d="M206,177.29c-.45,1.65-.94,3.17-2.86,3-1.63-.19-2-1.55-1.94-3s.81-2.55,2.43-2.49S205.75,176,206,177.29Z"/><path class="cls-2" d="M208.54,173.84a2.27,2.27,0,0,1-2.35-2.52,2.36,2.36,0,0,1,2.44-2.5,2.2,2.2,0,0,1,2.36,2.5A2.45,2.45,0,0,1,208.54,173.84Z"/><path class="cls-2" d="M196.3,218.75c1.5,0,2.66.61,2.62,2.24a2.64,2.64,0,0,1-2.51,2.62c-1.34.14-2.1-.81-2.24-2.11A2.22,2.22,0,0,1,196.3,218.75Z"/><path d="M72.3,217.88a20.59,20.59,0,0,1-2.75,11.92c-2.5,4.36-6.29,6-11.29,5.47-4.74-.46-7-3.18-8-7.46-1-4-3.5-7.39-3.24-11.84.47-8,5.22-12.92,13.23-13.09,7.72-.16,11.8,4.05,12.1,12.52C72.33,216.23,72.31,217.06,72.3,217.88Z"/><path class="cls-4" d="M6,217.93v-3c0-6.33,1.36-7.85,7.2-8.16,6.15-.33,8.47,1.61,9.25,7.61.6,4.56.31,9-2.5,12.8-1.73,2.37-3.52,5.59-7,4.49a9.45,9.45,0,0,1-6.89-8.3c-.18-1.8,0-3.64,0-5.46Z"/><path class="cls-4" d="M41.67,179.33c-.24,7.12-2.11,8.35-9,5.91-7.52-2.69-10.93-6.78-10.53-12.69a8.13,8.13,0,0,1,4.56-7.21C29.5,164,31.89,165.21,34,167,38,170.2,42.59,173.08,41.67,179.33Z"/><path class="cls-4" d="M26.18,256c0-5.51,3.59-8.34,10.63-8.44,5-.07,8.21,4,8.26,10.37a9.6,9.6,0,0,1-9.88,9.74C29.78,267.55,26.15,262.85,26.18,256Z"/><path class="cls-2" d="M17.19,286.23A3.52,3.52,0,0,1,14,289.51a2.23,2.23,0,0,1-2.77-2.13c-.23-1.9.57-3.27,2.61-3.47A2.89,2.89,0,0,1,17.19,286.23Z"/><path class="cls-2" d="M27.21,236.31c.17,2.56-.51,3.92-2.26,4.07s-2.76-1-2.84-2.71a2.91,2.91,0,0,1,2.48-3.23A2.08,2.08,0,0,1,27.21,236.31Z"/><path class="cls-2" d="M30.23,149.43c1.55.21,2.94.75,2.92,2.63a2.58,2.58,0,0,1-2.84,2.75c-1.63,0-3-.7-3-2.55S28.68,149.84,30.23,149.43Z"/><path class="cls-2" d="M47.45,182.86c1.77,0,2.53,1.15,2.65,2.82s-.7,3-2.42,3.13a2.75,2.75,0,0,1-3.09-3.05A2.81,2.81,0,0,1,47.45,182.86Z"/><path class="cls-2" d="M40.8,156.23a1.49,1.49,0,0,1,.12.14,4.12,4.12,0,0,1-1,4.12c-1.34,1.27-2.57,1.35-3.73-.23-1-1.42-1.11-2.81.35-3.92S39.35,155.83,40.8,156.23Z"/><path class="cls-2" d="M21.81,249.91a3.09,3.09,0,0,1-3.25,2.54,2.2,2.2,0,0,1-2.41-2.87c.29-1.6,1-2.88,2.89-2.59A3.2,3.2,0,0,1,21.81,249.91Z"/><path class="cls-2" d="M43.73,194.91A2.65,2.65,0,0,1,46.19,198c-.08,1.7-.93,2.87-2.73,2.76a2.6,2.6,0,0,1-2.56-3A2.86,2.86,0,0,1,43.73,194.91Z"/><path class="cls-2" d="M33.69,227.08c-.23,1.34-.63,2.76-2.28,2.63a3.38,3.38,0,0,1-3-3.34c-.14-1.55,1.1-2.35,2.58-2.26C32.71,224.21,33.44,225.46,33.69,227.08Z"/><path class="cls-2" d="M18.19,262.4c-.16,1.93-1.17,2.49-2.67,2.44S13,264.06,13,262.48a2.27,2.27,0,0,1,2.38-2.5A2.57,2.57,0,0,1,18.19,262.4Z"/><path class="cls-2" d="M24.93,147.13c-.6,1.7-1.62,2.88-3.58,2.75a2,2,0,0,1-2-2.35c.08-1.77,1.19-2.62,2.92-2.65A2.28,2.28,0,0,1,24.93,147.13Z"/><path class="cls-1" d="M48.67,173.93a2.63,2.63,0,0,1,2.67,2.88c0,1.35-.64,2.21-2.08,2.13a3,3,0,0,1-3-2.64C46,174.69,47.14,174,48.67,173.93Z"/><path class="cls-2" d="M14.21,277.41a2.54,2.54,0,0,1-2.35-2.72,1.87,1.87,0,0,1,2.26-2c1.53.11,2.53.92,2.41,2.54A2.33,2.33,0,0,1,14.21,277.41Z"/><path class="cls-2" d="M16.05,142.74a2.61,2.61,0,0,1-2.33,2.76,1.91,1.91,0,0,1-2.22-2.09,2.54,2.54,0,0,1,2.08-2.47C15,140.66,15.75,141.39,16.05,142.74Z"/><path class="cls-2" d="M44.41,168.86c-1.68-.08-2.32-1.16-2.33-2.64a1.83,1.83,0,0,1,2.17-2.08,2.49,2.49,0,0,1,2.47,2.61A2.12,2.12,0,0,1,44.41,168.86Z"/><path class="cls-2" d="M41.16,208.46c-.21,1.49-1,2.4-2.55,2.3a2.18,2.18,0,0,1-2.15-2.21c-.05-1.45.67-2.59,2.24-2.59S40.94,207,41.16,208.46Z"/><path class="cls-2" d="M35.09,215.1c1.21.42,2.51.93,2.24,2.62a1.89,1.89,0,0,1-2.47,1.7,2.47,2.47,0,0,1-2.14-2.37C32.73,215.73,33.62,215,35.09,215.1Z"/><path class="cls-3" d="M125.54,306.67c-15,.72-30.31-1.23-45.62-.17-1.88.13-3.82-.37-4.44-2.44s1.11-3,2.46-3.92A372.57,372.57,0,0,0,116,272.06c6.57-5.59,9.37-5.14,16.16.62,12.92,11,25.43,22.45,40.35,30.8,1.14.63,2.68,1.33,2.39,2.86-.41,2.13-2.42,1.32-3.73,1.34C156.05,307.87,140.92,307.64,125.54,306.67Zm37.6-4c-.82-1.28-.7-3.41-2.85-3.57-1.1-.08-2.14.86-1.74,1.86a7.62,7.62,0,0,0,2.6,3.37C161.82,304.82,163,304,163.14,302.71Z"/><path class="cls-2" d="M103.85,368.42c-2.68-.05-3.74-1.42-3.59-3.79s1.18-4.91,3.94-4.63c2.47.25,5.75,1.3,5.54,4.49S106.28,368,103.85,368.42Z"/><path class="cls-2" d="M104.11,399.63c-3.67.24-4.74-1.43-4.63-3.61.12-2.42,1.42-5.07,4-4.78,2.29.27,5.76,1.16,5.56,4.54S105.61,399.2,104.11,399.63Z"/><path class="cls-2" d="M175.48,360.52c-.59,3.15-3.31,3.61-5.88,4s-3.67-1.33-3.63-3.56c0-2.4.94-5,3.68-4.9C172.08,356.16,174.89,357.06,175.48,360.52Z"/><path class="cls-2" d="M117,367.68c-1.48-.17-4.25-.92-4.44-4.12s2.57-3.48,4.91-3.53c2.53-.06,4.57,1,4.68,3.88C122.23,366.46,121.05,368,117,367.68Z"/><path class="cls-2" d="M71.44,375.76c-.35,3.15-1.88,4.74-4.52,5-3.68.31-4.12-2.85-4.72-5.22-.55-2.16,1.07-3.54,3.2-3.36C68,372.37,70.65,373,71.44,375.76Z"/><path class="cls-2" d="M146.39,393.64c-2.12-.58-5-1.29-4.76-4.66.24-3,3-3.18,5.33-3.07,2.64.12,4.37,1.38,4.21,4.32C151,392.94,149.47,394,146.39,393.64Z"/><path class="cls-2" d="M146.9,381.77c-2.53.26-3.71-.89-3.76-3.37s1.14-5.15,3.55-5.06,5.71,1.06,5.79,4.27S149.54,381.42,146.9,381.77Z"/><path class="cls-2" d="M120.6,377.73c2.49-.08,4.57.47,4.64,3.68.06,2.41-1,4.14-3.39,3.94-2.77-.24-6-.81-6-4.58C115.79,377.93,118.16,377.52,120.6,377.73Z"/><path class="cls-2" d="M105.51,387c-2.75.11-5-.72-5.08-3.88,0-2.13,1.19-4.14,3.53-3.9,2.75.28,5.83,1.12,6.06,4.64C110.22,386.8,107.8,387,105.51,387Z"/><path class="cls-2" d="M71.79,393.77c-3.05.09-5.38-.49-5.48-3.81-.06-2.21.94-4.12,3.37-4,2.88.17,5.85,1.21,6.17,4.55C76.1,393.18,74,394.1,71.79,393.77Z"/><path class="cls-2" d="M80.15,367.74c-2.83.24-5.19-.59-5.38-3.65-.13-2.17.87-4.45,3.7-4.13,2.62.3,5.35,1,5.7,4.34C84.48,367.21,82.6,367.94,80.15,367.74Z"/><path class="cls-2" d="M130.76,396.08c-2.54.3-4.31-.5-4.33-3.32s2.25-3.57,4.4-3.52,5.12.51,5.28,3.35C136.31,396.14,133.15,395.8,130.76,396.08Z"/><path class="cls-2" d="M182.56,362.64c-2.44.21-4.27-.34-4.32-3.33s1.85-3.52,4.26-3.5c2.65,0,5.51.6,5.4,3.65C187.81,362.12,185.1,362.78,182.56,362.64Z"/><path class="cls-2" d="M190.49,370.18l-.92.92a13,13,0,0,1-2.83.61c-2.47,0-5.65,1-5.51-3.37.1-3,2.21-3.68,4.39-3.34C188.32,365.43,192.08,365.48,190.49,370.18Z"/><path class="cls-2" d="M93.12,360.8c2,.05,4.8.79,4.79,3.41,0,3-2.91,3.42-5.58,3.49s-4.16-.66-4.09-3.57C88.3,361.05,90.38,360.83,93.12,360.8Z"/><path class="cls-2" d="M38.39,362.61c-3.65,0-5.09-2.26-5.77-5.51-.44-2.12-.22-3.61,2.08-4.24s3.65.06,4.61,2.41c1.18,2.85-.49,5-1.06,7.49Z"/><path class="cls-2" d="M56.23,375.82c-3.57,0-6.13-1.42-6.55-4.51-.28-2.09,2.07-2.81,4-2.52,2.23.34,5.28-.23,5.56,3.37C59.38,374.5,58.45,376,56.23,375.82Z"/><path class="cls-2" d="M159.57,381.76c2,.17,4.53.35,4.44,2.83-.15,3.69-3.43,3.87-6.24,4.16s-3.57-1.57-3.39-3.7C154.64,382,157.22,381.92,159.57,381.76Z"/><path class="cls-2" d="M79.37,378c3.61.27,6.1.16,6.14,3.54,0,3-1.86,3.43-4.26,3.36-2.67-.08-5.37-.9-5.41-3.74C75.81,378.8,78.29,377.9,79.37,378Z"/><path class="cls-2" d="M40.89,369.85c2.46-.2,4.6,0,4.42,3.46-.14,2.67-1.69,3.38-3.91,3.34-2.68,0-5.48-1.09-5.66-3.73C35.54,370.1,38.31,369.58,40.89,369.85Z"/><path class="cls-2" d="M155.85,359.33c2.4.1,4.46.14,4.42,3.38,0,2.57-1.23,3.78-3.5,3.79-2.46,0-5-1.1-5.19-3.66S153.64,359.41,155.85,359.33Z"/><path class="cls-2" d="M69,360.92c2.54-.37,4,.78,4,3.49,0,2.51-1.45,3.45-3.83,3.4-2.57,0-4.89-.79-4.92-3.64C64.22,361.52,66.4,360.75,69,360.92Z"/><path class="cls-2" d="M92.2,380.82c3-.21,4.74.53,4.85,2.73.14,3-2.12,3.93-4.61,4-1.85.05-4-.54-4-2.78C88.34,381.83,90.74,381.14,92.2,380.82Z"/><path class="cls-2" d="M142.89,366.12c-2.18-.39-4.74-.56-4.51-3.52.22-2.74,2.76-3.15,4.87-3.19s4,1,3.84,3.56S145,366,142.89,366.12Z"/><path class="cls-2" d="M161.63,377.08c-2.09-.44-4.64-.58-4.31-3.61.3-2.77,2.8-3.1,4.89-3.11s4,1.21,3.78,3.65S163.74,377,161.63,377.08Z"/><path class="cls-2" d="M44.31,362.83c-.83-5.52.61-7.57,4.5-6.34,2,.62,3.86,1.56,3.54,4-.35,2.67-2.63,2.36-4.58,2.55-1.24.13-2.28-1.46-3.57-.33Z"/><path class="cls-2" d="M134.17,384.78c-2.21.06-4.43-.55-4.44-2.91,0-2.76,2.44-3.72,4.87-3.93,2.12-.18,3.62.95,3.73,3.09C138.48,383.79,136.54,384.63,134.17,384.78Z"/><path class="cls-2" d="M49.7,376.72c1.95.19,4.31.35,4.48,3.22s-2.41,3.36-4.44,3.48-4.06-1.05-4.2-3.36S47.17,376.69,49.7,376.72Z"/><path class="cls-2" d="M82.22,395.92c-2.37-.05-4.43-.45-4.37-2.76.07-2.83,2.55-3.8,4.86-4a3.19,3.19,0,0,1,3.76,3.56C86.27,395.42,84.1,395.93,82.22,395.92Z"/><path class="cls-2" d="M172.94,375.73c2.41-.11,4,1.12,4,3.39s-2.08,3.46-4.2,3.27-4.61-.5-4.46-3.49S170.76,375.88,172.94,375.73Z"/><path class="cls-2" d="M123.14,395.12c-.78,2.68-3,3.15-5.12,3.06s-3.94-1.14-3.73-3.7,2.14-3.22,4.27-3S122.82,392.44,123.14,395.12Z"/><path class="cls-2" d="M131.16,360.8c2.88,0,4.88.55,5.08,3.39a2.93,2.93,0,0,1-3.27,3.44c-2.64-.07-5.17-1.14-5.27-4.1C127.63,361.45,129.66,360.73,131.16,360.8Z"/><path class="cls-2" d="M57.59,366c-2.07-.14-4.41-.42-4.06-3.12s2.82-3.68,5.19-3.71a3.16,3.16,0,0,1,3.44,3.44C62,365.44,59.88,365.85,57.59,366Z"/><path class="cls-2" d="M178,369.9c-.87,2.67-3.07,3.36-5.46,3.25-2-.09-3.5-1.14-3.34-3.46.21-2.91,2.33-3.35,4.6-3.15C175.86,366.71,177.77,367.33,178,369.9Z"/><path class="cls-2" d="M63.74,385.39c-.26,1.91-1.28,3.21-3.26,2.85-2.6-.46-4.8-1.83-4.81-4.79a2.84,2.84,0,0,1,3.26-3C61.86,380.72,63.08,382.82,63.74,385.39Z"/><path class="cls-2" d="M91.72,390.88c3.29-.24,5.13.9,5.23,3.42.08,2.06-1.64,3.31-3.64,3.27-2.34,0-4.9-.51-5-3.57C88.22,391.35,90.44,391.05,91.72,390.88Z"/><path class="cls-2" d="M44.2,362.72c-.5,1.62,1.2,3.57-.75,5a4.45,4.45,0,0,1-5.48.21c-3-2,.05-3.54.42-5.29l-.14.15,6.06.07Z"/><path class="cls-2" d="M183.18,46.92c-1.67,0-3.33-.84-5,0l.1.09c.2-2.2-1.84-4.86,1.76-6.39,1.15-.49-.41-1.08-1-1.33-3-1.24-3.15-3.79-1.36-5.52,2.28-2.2,5.32-1.44,7.69.51,2.18,1.79,1.36,3.48-.74,4.71-1.38.81-2.09,1-.19,2.47,2.91,2.27-.71,3.73-1.38,5.58Z"/><path class="cls-2" d="M75.61,27.21c2.67.14,3.72,1.59,3.55,3.92-.17,2.5-1.24,4.95-4,4.61-2.43-.29-5.78-1.33-5.49-4.57S73.19,27.74,75.61,27.21Z"/><path class="cls-2" d="M119.07,40.92c1.74-.21,3.05,1,3,3.41s-1.26,5-3.8,4.88c-2.35-.15-5.8-1-5.76-4.27S115.53,41.1,119.07,40.92Z"/><path class="cls-2" d="M155.77,36.88c-2-.48-5.06-.79-4.91-4.26A4.52,4.52,0,0,1,156,28.31c3,.32,3.94,3.21,4.12,5.86C160.27,36.59,158.41,37.05,155.77,36.88Z"/><path class="cls-2" d="M122.87,13.28c-.73,2.13-1.28,5-4.16,4.52-2.29-.36-5.69-.88-5.4-4.48.28-3.45,3.43-3.55,6-3.85S122.52,11.13,122.87,13.28Z"/><path class="cls-2" d="M150.81,15.19c2.68.08,5.06.85,5.19,4,.09,2.39-1.1,4.12-3.94,3.84s-5.41-1.24-5.63-4.4C146.24,15.91,148.3,15,150.81,15.19Z"/><path class="cls-2" d="M105.61,48.94c-3.42.14-5.48-.61-5.41-4,0-2.38,1.19-3.91,3.56-3.68,2.62.25,5.6.93,5.89,4.15C109.91,48.35,107.7,49.25,105.61,48.94Z"/><path class="cls-2" d="M77.21,23.08c-3.85.12-5.95-.49-6.08-3.62-.1-2.3.88-4.23,3.3-4.05,2.75.21,6,.74,6.14,4.49C80.67,22.83,78.26,23.11,77.21,23.08Z"/><path class="cls-2" d="M122,26c-.62,2.56-1.57,4.47-4.37,3.91-2.63-.53-5.32-1.34-5.28-4.75,0-3,2.31-3.06,4.58-3.08C119.83,22,121.47,23.39,122,26Z"/><path class="cls-2" d="M101.46,31.81c-2.46-.23-4.54-1.18-4.54-4.1,0-2.51,1.24-4,4.07-3.72,2.62.3,5.1.93,5.35,4.07C106.61,31.47,103.79,31.34,101.46,31.81Z"/><path class="cls-2" d="M31.42,39.15l1.64-1.38A7.34,7.34,0,0,1,35,37.29c2.5,0,5.67-1.08,6.11,3C41.35,42.85,40,44,37.54,44,34.26,44,30.92,44,31.42,39.15Z"/><path class="cls-2" d="M183.06,47c4.07-.61,5.9,1.2,6.57,5.21.39,2.36-.2,3.42-2.2,4.19-2.22.86-3.19-.26-4.32-2-1.68-2.64.53-5,.07-7.46Z"/><path class="cls-2" d="M142.16,41.21c2.62.16,5.09.69,5.19,4,.07,2.17-.71,4-3.4,3.87-3-.19-5.83-1.07-5.95-4.65C137.92,42,139.81,41.08,142.16,41.21Z"/><path class="cls-2" d="M90.57,19.91c-1.64-.07-4.38-.76-4.51-3.35-.15-3.18,2.74-3.4,5.39-3.55s4.3.7,4.32,3.37S93.84,20,90.57,19.91Z"/><path class="cls-2" d="M62.88,27.77c-1.92-.73-4.59-.53-4.59-3.18,0-4,3.72-3.71,6.23-4.28,2.71-.62,3.45,1.87,3.41,3.77C67.85,27.25,64.8,26.9,62.88,27.77Z"/><path class="cls-2" d="M52.19,44.91c2.38-.19,4,.37,4.05,3.14s-1,5.15-3.58,5.09c-2.41,0-5.75-1.07-5.82-4.32S49.76,45.33,52.19,44.91Z"/><path class="cls-2" d="M40,46.7c2.26-.25,4,.32,4.13,3,.21,3.27-2.2,3.94-4.54,3.86s-5.14-.59-5.15-3.5C34.37,46.5,37.56,47,40,46.7Z"/><path class="cls-2" d="M141,30.94c-2.22.19-4.48-.17-4.38-3.43.08-2.41,1.67-3.46,4-3.4,2.62.07,5.44.84,5.7,3.62C146.57,30.78,143.76,31,141,30.94Z"/><path class="cls-2" d="M129.44,48.59c-2.19-.64-5.19-.77-5-3.75.17-3.32,3.25-3.05,5.71-3.22,2.64-.18,4.17.82,4,3.64C133.92,48.25,131.52,48.2,129.44,48.59Z"/><path class="cls-2" d="M166.9,33.16c2.48.56,5.34,1.46,5.6,4.84.14,1.92-2.11,3-3.53,2.56-2.18-.67-5.85.32-5.94-3.65C163,34.74,163.88,33,166.9,33.16Z"/><path class="cls-2" d="M152.77,48c-2.62.33-3.56-1-3.47-3.47s1.79-3.48,4-3.34c2.4.15,4.9,1,4.77,3.9C157.9,48.28,155.13,48.07,152.77,48Z"/><path class="cls-2" d="M169.09,48.07c-1.45-.79-1.81.9-2.79,1.26-2.37.88-4.69,1.32-5.92-1.42-1-2.21.22-4,2.44-4.56,2.56-.7,5-.52,6,2.62.21.7-.72,1.53.17,2.22Z"/><path class="cls-2" d="M129.65,11.68c2.4.56,4.88,1.05,4.35,3.94-.47,2.61-3,2.92-5.13,2.74S125,17,125.38,14.46,127.76,11.6,129.65,11.68Z"/><path class="cls-2" d="M54.22,30.28c-.57,2.62-2.7,3.3-4.84,3.39s-4-1.12-4-3.5c.05-2.86,2.24-3.3,4.6-3.18C52.17,27.1,53.9,27.75,54.22,30.28Z"/><path class="cls-2" d="M65.82,49.81c-2.69.39-3.87-1-3.87-3.62s1.55-3.35,3.85-3.28c2.58.07,4.92,1.09,4.85,3.76C70.59,49.06,68.39,50.1,65.82,49.81Z"/><path class="cls-2" d="M80,43c1.88.3,4.15,1,4,3.38-.24,2.76-2.76,3.53-5.23,3.39-2.31-.14-3.75-1.49-3.4-3.94S77.63,43,80,43Z"/><path class="cls-2" d="M158.42,24q.33-3.29,3.31-3c2.58.27,4.45,1.6,4.72,4.25.21,2-.94,3.65-3.18,3.5C160.33,28.59,159.3,26.22,158.42,24Z"/><path class="cls-2" d="M144.36,16.37c-.64,2.53-2.54,3.49-5.08,3.58-2.23.07-3.7-1.33-3.6-3.23.15-2.77,2.35-3.75,5-3.62C142.62,13.2,144.21,13.85,144.36,16.37Z"/><path class="cls-2" d="M134.07,24.75a5.31,5.31,0,0,1-5.33,3.88c-2.19,0-3.83-1.35-3.44-3.85.44-2.81,2.71-2.92,4.94-2.9C132.28,21.89,133.72,22.67,134.07,24.75Z"/><path class="cls-2" d="M89.08,31c-3.74.26-5.42-.95-5.29-3.23.15-2.53,2.34-3.56,4.65-3.45,2,.1,4.26.75,4,3.34A3.65,3.65,0,0,1,89.08,31Z"/><path class="cls-2" d="M53.23,39.16a3.74,3.74,0,0,1-4.1,3.63c-2.23,0-4.7-.57-4.71-3.29S46.74,36.18,49,36A3.64,3.64,0,0,1,53.23,39.16Z"/><path class="cls-2" d="M94.49,45.08c.1,2.59-1.75,3.19-3.54,3.35-2.47.21-4.71-.55-5-3.48-.24-2.27,1.38-3.39,3.35-3.34C91.63,41.67,93.85,42.43,94.49,45.08Z"/><path class="cls-2" d="M178.18,46.91c-.24,2.25,1.22,5.38-2.54,5.94-3.58.54-5.46-1.69-6.54-4.79l-.12.13c2.78-2.83,6-2.33,9.3-1.19Z"/><path class="cls-2" d="M103.38,11c2.75,0,4.65.91,4.65,3.58,0,2.15-1.71,3.26-3.71,3.19-2.36-.08-4.93-.67-5-3.67C99.34,11.55,101.6,11.22,103.38,11Z"/><path class="cls-2" d="M172.7,26a3.33,3.33,0,0,1,4,3.41c.1,2.1-1.59,3.34-3.58,3.31-2.34,0-4.94-.65-5.08-3.56C167.88,26.61,170,26.05,172.7,26Z"/><path class="cls-2" d="M61.32,32.08c1.75.53,4.12,1.05,3.68,3.6-.48,2.75-3,3.38-5.43,3.14-2-.2-3.46-1.47-3.23-3.65C56.65,32.38,58.79,32,61.32,32.08Z"/><path class="cls-1" d="M89.26,63.19q29.17-1.83,58.38-1.12c3.12.07,7.67-.43,8.78,1.74,1.41,2.75-1.73,6.06-3.6,8.76-3.43,5-3.74,4.91-7.85.78-2.34-2.37-4.8-4.61-7.14-7-2.62-2.66-4.87-2.48-7.64.09-7,6.53-7.13,6.43-14.44.63-5.47-4.34-6.59-4.17-10.41,1.63-5.59,8.52-4.53,7.16-10.65,1.28-1.8-1.73-3.63-3.42-5.45-5.12C89.25,64.32,89.26,63.75,89.26,63.19Zm10.17,7.26a2.24,2.24,0,0,0,2.16-2.8c-.15-1.57-.63-3-2.63-2.74-1.41.17-2.68,1.06-2.61,2.43A3.47,3.47,0,0,0,99.43,70.45Zm23.49-6c-1.33.27-2.67.68-2.72,2.29a3,3,0,0,0,2.59,3.1c1.82.27,2.47-1.17,2.47-2.85A2.3,2.3,0,0,0,122.92,64.46Zm23.16,2.29c-.84.15-2.11.43-2,2a2.47,2.47,0,0,0,2.71,2.34c1.49,0,2.07-.94,1.92-2.28S147.91,66.6,146.08,66.75Z"/><path class="cls-2" d="M89.26,63.19c0,.56,0,1.13,0,1.69-4.91-.15-5.65,4.49-7.94,7.18-4,4.75-4.18,4.92-8-.18,1.92-.22,4.63,1.19,5-2.3.16-1.44-.34-3-2-2.86-2.38.15-4.6,1-4,4.17-2.51-1.44-3.49-4.21-6.48-6.76C74.37,64.19,81.72,62.32,89.26,63.19Z"/><path class="cls-2" d="M20.81,67.09c4.36-.7,8.56-1.46,12.78-2,1.4-.19,3.21-.69,4.2.63s-.3,2.81-1,4c-5.24,8.89-6.7,9.06-13.52,1.68C22.27,70.34,21.07,69.38,20.81,67.09Zm10.62,3.07C31.3,69.36,31,67.8,29,68a2.67,2.67,0,0,0-2.66,2.41,3.18,3.18,0,0,0,3.1,3.16C31,73.65,31.62,72.4,31.43,70.16Z"/><path class="cls-2" d="M181.83,76.9c-1.68-.36-4,1.06-5-.85-.77-1.53,1-3,1.92-4.31,1.46-2,1.66-6,4.95-5.31,4,.9,6.38,4.6,8.87,7.7.91,1.14-.24,1.73-1.36,1.83C188.08,76.24,185.07,77.57,181.83,76.9Zm4.39-3.73c0-1.41-.56-2.41-1.92-2.5s-2.82.49-2.76,2.06a2.49,2.49,0,0,0,2.34,2.2C185.22,75.06,186.09,74.51,186.22,73.17Z"/><path class="cls-2" d="M122.22,78.44A63,63,0,0,1,104,79.83c1-3.71,3.85-6,5.88-8.88a2,2,0,0,1,3.08-.47C115.92,73,118.85,75.55,122.22,78.44Zm-8-2.23c-.3-1.38-1-2.48-2.52-2.54a1.94,1.94,0,0,0-2.13,2.16c0,1.19.57,2.24,2.07,2.23A2.47,2.47,0,0,0,114.19,76.21Z"/><path class="cls-2" d="M81.55,79.5c1.41-3.28,3.57-5.13,5.65-7,1.61-1.43,3.15-.15,4.46.75C93.72,74.69,95.55,76.41,96,79c.16,1-.78,1.44-1.58,1.6-4,.77-7.79-1.13-11.75-.72C82.24,80,81.79,79.59,81.55,79.5Z"/><path class="cls-2" d="M55.25,73.19c-.18,1-.45,2.06-1.57,2.29s-8.25-8.5-8-9.49c.19-.78.83-.93,1.51-1,3.94-.34,7.87-.73,11.82-1,.91-.06,2.14-.42,2.65.69s-.58,1.75-1.19,2.48c-1,1.26-2.13,2.49-3.21,3.74-.54-1.45-.35-3.61-2.9-3.17-1,.17-2,.6-2.19,1.75C51.84,71.77,53.21,72.78,55.25,73.19Z"/><path class="cls-2" d="M126.75,78.89a12.52,12.52,0,0,1,.65-2.21c4.4-7.91,10-7.94,14.85-.15,1.22,2,.13,2.32-1.44,2.34C136.24,78.92,131.66,78.89,126.75,78.89Zm9.51-3.47c-.59-.72-.46-2.31-2.19-2.51-1.49-.18-2.08.7-2.23,2s.39,2.3,1.81,2.37C134.74,77.31,136.05,77.49,136.26,75.42Z"/><path class="cls-2" d="M62.22,73.82c.23-3.46,1.53-4.95,4.42-2,2.21,2.27,6.45,4.29,5.55,7.33-.59,2-5.38.45-8.27.71a6.1,6.1,0,0,1-1.48,0c-1.56-.24-4,.83-4.46-.83s1.06-3.62,3.25-4.18c.35,2.11,1.12,4,3.69,3.6,1.63-.28,1.63-2,1.36-3.29C65.74,72.57,64.11,72.68,62.22,73.82Z"/><path class="cls-2" d="M159.56,72.36c0-3.92,1.69-4.47,4.48-2a13.91,13.91,0,0,1,4.61,6.48c-4.18,1.9-8.41,1.11-13.14,1,1.26-2.31,1.18-4.9,4.08-5.46-1,2.7.52,3.65,2.84,3.68a1.66,1.66,0,0,0,1.67-2C163.51,71.1,161.54,71.63,159.56,72.36Z"/><path class="cls-2" d="M168.82,68.05c-2.45-.59-3.56-2.63-5.89-5.06,3.9,0,6.8-.14,9.67.06,1.57.11,4.46-1,4.29,1.69a8.34,8.34,0,0,1-4.23,6.92c-1.51.77-2.14-1-2.53-2.28,1.28-.23,3.2.53,3.1-1.85A2.38,2.38,0,0,0,171.44,65C169,64.57,169,66.46,168.82,68.05Z"/><path class="cls-2" d="M190.2,64c1.79,0,3.59-.11,5.37,0,1.38.12,3.51-.79,4,.86s-1.32,3.26-2.55,4.44c-1.47,1.4-2.63-.09-3.79-1s-2.68-1.87-4-2.8Z"/><path class="cls-2" d="M45.28,73.91a3.82,3.82,0,0,1,2.9,4.81c-.1.54-9.92.31-10.24-.3-1.34-2.57.71-3.4,2.39-4.39l.07.08c.09,1.87.91,3.22,2.92,3.14s1.93-1.8,1.9-3.28Z"/><path class="cls-4" d="M72.31,70.89c-.58-3.22,1.64-4,4-4.17,1.62-.09,2.12,1.42,2,2.86-.37,3.49-3.08,2.08-5,2.3Z"/><path class="cls-4" d="M55.25,73.19c-2-.41-3.41-1.42-3.09-3.71.16-1.15,1.18-1.58,2.19-1.75,2.55-.44,2.36,1.72,2.9,3.17Z"/><path class="cls-4" d="M62.22,73.82c1.89-1.14,3.52-1.25,4.06,1.35.27,1.29.27,3-1.36,3.29-2.57.44-3.34-1.49-3.69-3.6Z"/><path class="cls-4" d="M168.82,68.05c.22-1.59.2-3.48,2.62-3.08a2.38,2.38,0,0,1,1.79,2.56c.1,2.38-1.82,1.62-3.1,1.85Z"/><path class="cls-2" d="M41.33,73.08C41.2,72,41.55,71,42.71,71c1.74,0,2.4,1.32,2.57,2.9l-.06.06a3.43,3.43,0,0,0-3.82-.82Z"/><path class="cls-2" d="M40.33,74l1-1,.07.07-1,1Z"/><path class="cls-2" d="M90.26,342.79c-4.78,0-9.56,0-14.35,0-2.5,0-2.87-1.07-1.72-3.06.5-.86.91-1.78,1.47-2.59,4-5.75,4.74-5.77,9.6-.88,1.84,1.85,3.93,3.46,5.9,5.17Zm-8.82-6.2c-1.27.1-2.43.6-2.38,2.33a2.74,2.74,0,0,0,2.3,2.85c1.86.35,2.28-1.09,2.39-2.44S83.49,336.64,81.44,336.59Z"/><path class="cls-2" d="M190.51,340c-3.51,1.2-6.15.73-8.72.64-1.81-.07-5,1.16-5.19-1.1-.27-2.91,2.4-5.18,4.73-7.07a1.22,1.22,0,0,1,1.74.24Z"/><path class="cls-2" d="M53.19,335.45c-.54,1.6-1.27,2.88-3.18,1.52a13.24,13.24,0,0,1-1.83-1.69c-1.94-2-5.14-4.31-4.12-6.71.89-2.11,4.46-.22,6.84.13.66.09,1.35,0,2,.13,1.65.37,4.25-1.05,4.76,1.17.37,1.64-1.79,2.94-3.38,3.9-.13-1.74.13-3.92-2.42-3.85-1.11,0-2.79.81-2.63,2.38C49.43,334.63,50.71,336,53.19,335.45Z"/><path class="cls-2" d="M148.21,341.88c-3,0-5.19.12-7.39-.05-1.46-.11-4,1-4.06-1.15,0-1.91,1.85-3.69,4.42-3.77C144.41,336.81,146.13,338.71,148.21,341.88Z"/><path class="cls-2" d="M161.92,342c-1.4-.88-4.27,1.11-4.12-1.8.11-2.17,2.1-5.08,4.13-4.76,1.82.29,4.46,3.08,4.56,4.89C166.65,343.19,163.42,341,161.92,342Z"/><path class="cls-2" d="M192.06,335.86c-2-1.11-4.12-2.09-5.34-4.72h14.19c-1.75,2.32-2.2,5.15-5.39,5.63.77-1.48,1.5-3-.05-4.42-.7-.67-1.41-.47-2.21-.09C191.54,333.06,191.52,334.35,192.06,335.86Z"/><path class="cls-2" d="M95.49,337.66c-2.42,1.91-3.76,0-5.39-1.38s-3.43-2.48-4.67-4.42c3.35-.85,6.14-1.8,8.82-.05C91.64,334.4,93.53,336,95.49,337.66Z"/><path class="cls-2" d="M37.18,321.86c-2.23-1.43-1.58-3.05-.09-4.44,1.06-1,2.55-2,3.9-.6,1.58,1.69,3.13,3.61,1,6Z"/><path class="cls-2" d="M176.32,325.7a8.1,8.1,0,0,1-2.86-.21c-1.59-.77-3.59-1.68-2.81-4s3-1.94,4.65-1.55c2.39.55,3.08,2.26,2,4.52a9.07,9.07,0,0,1-.86,1.2Z"/><path class="cls-2" d="M104.74,338.84c1.92.44,3,1.85,4.3,3.51-4.67,2.41-9.25,1-13.94,1.4,1.08-2,2.74-2.65,4.45-3.18s1.7,3.31,4.17,1.77C105.33,341.34,105.55,340.34,104.74,338.84Z"/><path class="cls-2" d="M67.37,334.92c-1.71-.94-3.21-2.54-2.54-4.26s2.92-.6,4.47-.79a4.59,4.59,0,0,1,1.48,0c1.65.36,4.35-1.06,4.74,1.08.33,1.77-1.77,3.32-3.9,3.77.45-1.81.14-3.73-1.88-3.74S66.92,332.84,67.37,334.92Z"/><path class="cls-4" d="M58.75,336.89c1.13-1,2.52-1.76,3.8-.73a4,4,0,0,1,1.1,3c-.12,2-1.87,1.77-3.3,1.81C59.32,339.79,58.14,338.69,58.75,336.89Z"/><path class="cls-2" d="M151.27,332.58a5.4,5.4,0,0,1,1.82-.65c1.56.05,4.12-.93,4.43.7.41,2.25-2,4-3.51,5.56s-2.94.24-3.8-1.4c1.48.46,3.19.68,3.68-1.08S153.26,332.69,151.27,332.58Z"/><path class="cls-4" d="M173.86,334.35c-.78,1.06-1.3,2.31-2.87,2.42-2.38.17-2-2.15-3-3.22.85-.55,1.68-1.51,2.55-1.54C172.07,331.94,173,333.2,173.86,334.35Z"/><path class="cls-4" d="M38.33,335.78c1.66-.75,3.63-2.52,4.74.33.83,2.11,0,3.84-2.73,3.81C39.12,338.81,37.72,337.78,38.33,335.78Z"/><path class="cls-4" d="M95.49,337.66c-2-1.62-3.85-3.26-1.24-5.85,2.11-.47,3.48.36,3.94,2.44S97,337,95.49,337.66Z"/><path class="cls-4" d="M113.93,337.73c-1.57.43-3.32,1.67-4.22-.94-1.09-2-.22-3.21,1.52-4.14l1.94.1C114.54,334.24,114.52,335.94,113.93,337.73Z"/><path class="cls-4" d="M53.19,335.45c-2.48.51-3.76-.82-4-3-.16-1.57,1.52-2.35,2.63-2.38,2.55-.07,2.29,2.11,2.42,3.85Z"/><path class="cls-4" d="M67.37,334.92c-.45-2.08.23-3.94,2.37-3.92s2.33,1.93,1.88,3.74C70.26,336.16,68.83,336,67.37,334.92Z"/><path class="cls-2" d="M123.19,342.08c-2,1.09-4,.84-6.49.43,1.54-2.58,2.19-5.66,6-5.54C120.32,338.93,119.27,340.75,123.19,342.08Z"/><path class="cls-4" d="M104.74,338.84c.81,1.5.59,2.5-1,3.5-2.47,1.54-2.35-2.27-4.17-1.77C101.35,340.21,101.84,335.91,104.74,338.84Z"/><path class="cls-2" d="M113.93,337.73c.59-1.79.61-3.49-.76-5,1.52-1.47,3.31-.85,5.5-.73C117.5,334.5,116.59,336.77,113.93,337.73Z"/><path class="cls-2" d="M111.23,332.65c-1.74.93-2.61,2.18-1.52,4.14-2.43-.71-3.78-2.82-6.89-4.66C106.47,331.82,108.87,331.22,111.23,332.65Z"/><path class="cls-4" d="M192.06,335.86c-.54-1.51-.52-2.8,1.2-3.6.8-.38,1.51-.58,2.21.09,1.55,1.45.82,2.94.05,4.42C193.75,338.8,193.09,336.63,192.06,335.86Z"/><path class="cls-4" d="M123.19,342.08c-3.92-1.33-2.87-3.15-.51-5.11C124,338.56,128.06,339.88,123.19,342.08Z"/><path class="cls-4" d="M133.14,332.59c1.71,3.75,1.44,4.16-2.75,4.17l-1.18-1,.16,0C128.92,332.68,131.26,332.91,133.14,332.59Z"/><path class="cls-2" d="M133.14,332.59c-1.88.32-4.22.09-3.77,3.17-2.21,0-3.67-1.38-3.27-3.22.33-1.54,2.48-.72,3.81-.71A14.55,14.55,0,0,1,133.14,332.59Z"/><path class="cls-2" d="M38.33,335.78c-.61,2,.79,3,2,4.14-1.9,1.27-4.55,1.83-5.46-.12C34.08,338.11,36.62,336.73,38.33,335.78Z"/><path class="cls-4" d="M151.27,332.58c2,.11,3.13,1.31,2.62,3.13s-2.2,1.54-3.68,1.08l0,0-1.07-1.07.06.06c0-1,0-2,0-3Z"/><path class="cls-2" d="M58.75,336.89c-.61,1.8.57,2.9,1.6,4.05-1.71,1.46-3.56,1-5.53.48C55.27,339.05,56.43,337.47,58.75,336.89Z"/><path class="cls-2" d="M149.23,332.86c0,1,0,2,0,3-1-.15-1.91-.44-1.78-1.73C147.57,333.05,148.46,333,149.23,332.86Z"/><path class="cls-2" d="M26.21,338.84l1.27.32c-.72.93-.88-.06-1.23-.36Z"/><path class="cls-2" d="M129.21,335.73l1.18,1Z"/><path class="cls-2" d="M149.19,335.77l1.07,1.07Z"/><path class="cls-2" d="M109.93,324.9c-2.6.18-4.31-.34-4.53-2.61-.17-1.87.9-3.26,2.88-3.13s4.09.76,4.33,3.17C112.84,324.55,111.12,324.93,109.93,324.9Z"/><path class="cls-2" d="M142.77,319.4c1.93,0,3,1,2.87,2.71-.12,1.87-.84,3.87-3.2,3.54-1.7-.24-3.95-.88-3.95-3.09C138.49,320,140.93,319.85,142.77,319.4Z"/><path class="cls-2" d="M58.64,322.73c-1.75,0-3.32-.26-3.41-2.53s1.43-2.83,3.18-2.72,3.91.62,3.86,2.88C62.23,322.37,60.39,322.75,58.64,322.73Z"/><path class="cls-2" d="M128.24,322.24c.14,2-1,2.66-2.74,2.69-1.89,0-4-.06-4.25-2.39-.18-2.08,1.68-2.58,3.47-2.66S128.17,319.8,128.24,322.24Z"/><path class="cls-2" d="M189.84,325.64c-1.33-.84-3.28-1.25-3.36-3.18S188,320,189.58,320c1.77,0,3.38.71,3.42,2.81S191.05,324.8,189.84,325.64Z"/><path class="cls-2" d="M76.07,322.73c-1.95.08-3.21-.8-3.36-2.46-.17-1.86,1.25-2.53,2.93-2.52s3.57.27,3.47,2.53C79,322.08,77.41,322.5,76.07,322.73Z"/><path class="cls-2" d="M90,324.4c-1.39-.36-2.72-.93-2.48-2.57.3-2,1.77-3.07,3.79-3.19a1.76,1.76,0,0,1,2,2.12A3.83,3.83,0,0,1,90,324.4Z"/><path class="cls-2" d="M160.31,322.05c-.14,2-1.48,2.76-3.23,2.94-1.41.16-2.71-.21-2.94-1.82-.28-2,1-3,2.83-3.19C158.52,319.81,159.88,320.24,160.31,322.05Z"/><path class="cls-3" d="M163.86,105.57c1.85-.13,3.69.1,4.7,2,1.16,2.16-.33,3.5-1.74,4.64-4.28,3.43-8.6,6.82-13,10.11A212.93,212.93,0,0,0,129,143.85c-11.83,12.06-14.79,12.25-27.67,1.15-13.62-11.74-27.4-23.21-43.18-32-1.42-.79-3.36-1.63-2.82-3.63.6-2.18,2.81-1.25,4.31-1.33,32.23-1.73,64.53-.7,96.77-2C158.9,105.9,161.38,105.71,163.86,105.57Z"/><path class="cls-5" d="M163.14,302.71c-.13,1.32-1.32,2.11-2,1.66a7.62,7.62,0,0,1-2.6-3.37c-.4-1,.64-1.94,1.74-1.86C162.44,299.3,162.32,301.43,163.14,302.71Z"/><path class="cls-4" d="M99.43,70.45a3.47,3.47,0,0,1-3.08-3.11c-.07-1.37,1.2-2.26,2.61-2.43,2-.24,2.48,1.17,2.63,2.74A2.24,2.24,0,0,1,99.43,70.45Z"/><path class="cls-4" d="M122.92,64.46A2.3,2.3,0,0,1,125.26,67c0,1.68-.65,3.12-2.47,2.85a3,3,0,0,1-2.59-3.1C120.25,65.14,121.59,64.73,122.92,64.46Z"/><path class="cls-4" d="M146.08,66.75c1.83-.15,2.49.74,2.64,2s-.43,2.3-1.92,2.28a2.47,2.47,0,0,1-2.71-2.34C144,67.18,145.24,66.9,146.08,66.75Z"/><path class="cls-4" d="M31.43,70.16c.19,2.24-.48,3.49-2,3.41a3.18,3.18,0,0,1-3.1-3.16A2.67,2.67,0,0,1,29,68C31,67.8,31.3,69.36,31.43,70.16Z"/><path class="cls-4" d="M186.22,73.17c-.13,1.34-1,1.89-2.34,1.76a2.49,2.49,0,0,1-2.34-2.2c-.06-1.57,1.34-2.16,2.76-2.06S186.21,71.76,186.22,73.17Z"/><path class="cls-4" d="M114.19,76.21a2.47,2.47,0,0,1-2.58,1.85c-1.5,0-2-1-2.07-2.23a1.94,1.94,0,0,1,2.13-2.16C113.17,73.73,113.89,74.83,114.19,76.21Z"/><path class="cls-4" d="M136.26,75.42c-.21,2.07-1.52,1.89-2.61,1.84-1.42-.07-2-1-1.81-2.37s.74-2.16,2.23-2C135.8,73.11,135.67,74.7,136.26,75.42Z"/><path class="cls-4" d="M159.56,72.36c2-.73,3.95-1.26,4.54,1.64a1.66,1.66,0,0,1-1.67,2c-2.32,0-3.81-1-2.84-3.68l-.3-.29Z"/><path class="cls-4" d="M40.4,74.11l1-1a3.43,3.43,0,0,1,3.82.82c0,1.48.23,3.19-1.9,3.28S40.49,76,40.4,74.11Z"/><path class="cls-4" d="M81.44,336.59c2,.05,2.42,1.34,2.31,2.74s-.53,2.79-2.39,2.44a2.74,2.74,0,0,1-2.3-2.85C79,337.19,80.17,336.69,81.44,336.59Z"/></g></g></svg>