<svg xmlns="http://www.w3.org/2000/svg" viewBox="0 0 143.29 99.72"><g id="Layer_2" data-name="Layer 2"><g id="Layer_1-2" data-name="Layer 1"><path d="M58.68,99.72c-7.26-.29-15.18-1.82-21.79-7.36-5.39-4.53-6-9.77-1.86-15.49,1.13-1.56,2.37-3.05,3.4-4.67,3.08-4.81,2.92-8.86-1.4-12.54A165.33,165.33,0,0,0,22.18,48.83C16.15,44.77,10.3,40.56,5.54,35c-8.6-10.11-7.24-18.52,4.4-24.83A86.3,86.3,0,0,1,44.25.06a25.31,25.31,0,0,1,8.41,1c4,1.06,6,3.82,5.12,7.88-1.84,8.91.12,13.61,10.82,19.41,10.35,5.61,21.73,8.2,33,11.15,10.11,2.65,20.21,5.32,30.22,8.27a30.91,30.91,0,0,1,8.34,4.13c3.7,2.49,4.14,5.73,1.25,9.14a25.7,25.7,0,0,1-6.35,5.61c-9,5.31-18.06,10.51-27.28,15.42-8.25,4.39-16.63,8.57-25.14,12.42A56.36,56.36,0,0,1,58.68,99.72ZM39,5.09c-8.61.36-20.5,3.92-27.67,8.5C3.79,18.37,2.52,25.17,7.79,32.33c.44.59.92,1.14,1.39,1.71,5.52,6.72,12.87,11.09,20.05,15.71a143.06,143.06,0,0,1,13.05,9.13c5.34,4.37,5.71,8.69,1.92,14.5-1.15,1.77-2.44,3.45-3.46,5.3-2.05,3.73-1.47,7.83,1.92,10.38a27.37,27.37,0,0,0,8.16,4.36C61,96.53,71,94.63,80.74,91.15c16-5.72,30.87-13.62,45.52-22a50.38,50.38,0,0,0,10-7.69c3.33-3.24,2.87-6.34-.94-8.94A25,25,0,0,0,128.5,49c-10.64-3.11-21.4-5.8-32-9-9.65-2.87-19.35-5.71-28.73-9.34C58.66,27.14,51,21.77,49.66,10.81c-.3-2.57-2.23-4.22-4.74-4.83C43,5.51,41,5.37,39,5.09Z"/><path d="M88.18,48.83C74,47.24,60.41,43.92,48,36.67a18.06,18.06,0,0,1-4.53-3.92c-1.59-1.91-.72-3.59,1.79-3.59a13.73,13.73,0,0,1,4.58.78c12.89,4.74,25.76,9.56,38.63,14.37a9.06,9.06,0,0,1,2.45,1.22,13.52,13.52,0,0,1,1.82,2.14A23.39,23.39,0,0,1,90.1,48.8,7.23,7.23,0,0,1,88.18,48.83ZM80,44.74c-3.84-4-24.93-10.9-28.3-9.27C60.44,41.54,70,44,80,44.74Z"/><path d="M62.48,51.48C49.31,49.75,37,45.66,26.05,38a17.37,17.37,0,0,1-4.23-4.6c-1.2-1.81-.29-3.35,1.89-3.29a12.87,12.87,0,0,1,4.77,1.05Q45.34,38.48,62.13,46a12.26,12.26,0,0,1,3,1.89,11.18,11.18,0,0,1,1.6,2.35,25.44,25.44,0,0,1-2.61,1.18A5.59,5.59,0,0,1,62.48,51.48Zm-32-15.66C32.77,41.31,50.53,48.55,56,46.25,47.66,41.51,39.45,37.7,30.43,35.82Z"/><path d="M70.46,84.67c-1.35-.76-3.33-1.22-3.86-2.36-.42-.91.57-3.09,1.58-3.92,7.39-6.1,15.43-11.17,24.74-13.84a12.53,12.53,0,0,1,5.42-.15c3.38.59,4.35,3.28,1.76,5.47a80.27,80.27,0,0,1-12,8.54A47.61,47.61,0,0,1,70.46,84.67ZM92,68.68a35.28,35.28,0,0,0-16.62,8.41c-.42.37-.66,1.71-.47,1.84a3.3,3.3,0,0,0,2.23.65,31.88,31.88,0,0,0,16.07-7.87c.5-.47,1-1.58.77-2.06S92.63,69,92,68.68Z"/></g></g></svg>