<svg width="68" height="119" viewBox="0 0 68 119" fill="none" xmlns="http://www.w3.org/2000/svg">
<path d="M5.26512 20.1194C3.80809 20.1194 2.69227 19.7044 1.91765 18.8745C1.16147 18.0445 0.783384 16.8734 0.783384 15.361V4.95899C0.783384 3.44664 1.16147 2.27548 1.91765 1.44553C2.69227 0.615581 3.80809 0.200605 5.26512 0.200605C6.72214 0.200605 7.82874 0.615581 8.58492 1.44553C9.35954 2.27548 9.74685 3.44664 9.74685 4.95899V7.0062H6.86969V4.76534C6.86969 3.56652 6.3625 2.96711 5.34811 2.96711C4.33373 2.96711 3.82654 3.56652 3.82654 4.76534V15.5824C3.82654 16.7627 4.33373 17.3529 5.34811 17.3529C6.3625 17.3529 6.86969 16.7627 6.86969 15.5824V12.6222H9.74685V15.361C9.74685 16.8734 9.35954 18.0445 8.58492 18.8745C7.82874 19.7044 6.72214 20.1194 5.26512 20.1194ZM16.0203 20.1194C14.5264 20.1194 13.3829 19.6952 12.5899 18.8468C11.7968 17.9984 11.4003 16.7996 11.4003 15.2504V5.06965C11.4003 3.52041 11.7968 2.32159 12.5899 1.4732C13.3829 0.624803 14.5264 0.200605 16.0203 0.200605C17.5142 0.200605 18.6577 0.624803 19.4508 1.4732C20.2439 2.32159 20.6404 3.52041 20.6404 5.06965V15.2504C20.6404 16.7996 20.2439 17.9984 19.4508 18.8468C18.6577 19.6952 17.5142 20.1194 16.0203 20.1194ZM16.0203 17.3529C17.0716 17.3529 17.5972 16.7166 17.5972 15.444V4.876C17.5972 3.6034 17.0716 2.96711 16.0203 2.96711C14.9691 2.96711 14.4434 3.6034 14.4434 4.876V15.444C14.4434 16.7166 14.9691 17.3529 16.0203 17.3529ZM22.6984 0.477255H27.0418L28.9784 14.3374H29.0337L30.9702 0.477255H35.3137V19.8428H32.4365V5.18031H32.3812L30.168 19.8428H27.6228L25.4096 5.18031H25.3542V19.8428H22.6984V0.477255ZM37.5846 0.477255H45.8841V3.24376H40.6277V8.36179H44.8051V11.1283H40.6277V17.0763H45.8841V19.8428H37.5846V0.477255ZM34.3713 36.2438H31.1898V33.4773H40.5959V36.2438H37.4145V52.8428H34.3713V36.2438ZM42.0693 33.4773H46.5787C48.1464 33.4773 49.2899 33.8461 50.0092 34.5839C50.7285 35.3031 51.0881 36.419 51.0881 37.9313V39.1209C51.0881 41.1312 50.4242 42.4038 49.0962 42.9387V42.994C49.834 43.2153 50.3504 43.6672 50.6455 44.3496C50.959 45.032 51.1158 45.945 51.1158 47.0884V50.4912C51.1158 51.0445 51.1342 51.4964 51.1711 51.8468C51.208 52.1788 51.3002 52.5108 51.4478 52.8428H48.3493C48.2386 52.5292 48.1649 52.2341 48.128 51.9575C48.0911 51.6808 48.0726 51.1829 48.0726 50.4636V46.9225C48.0726 46.0372 47.9251 45.4193 47.63 45.0689C47.3533 44.7185 46.8646 44.5433 46.1637 44.5433H45.1125V52.8428H42.0693V33.4773ZM46.2191 41.7768C46.8277 41.7768 47.2796 41.62 47.5747 41.3065C47.8882 40.9929 48.045 40.4673 48.045 39.7296V38.2356C48.045 37.5348 47.9159 37.0276 47.6577 36.7141C47.4179 36.4005 47.0306 36.2438 46.4957 36.2438H45.1125V41.7768H46.2191ZM53.2272 33.4773H56.2703V52.8428H53.2272V33.4773ZM58.5495 33.4773H63.0312C64.5436 33.4773 65.6778 33.883 66.434 34.6945C67.1902 35.506 67.5683 36.6956 67.5683 38.2633V40.1722C67.5683 41.7399 67.1902 42.9295 66.434 43.741C65.6778 44.5525 64.5436 44.9582 63.0312 44.9582H61.5926V52.8428H58.5495V33.4773ZM63.0312 42.1917C63.5292 42.1917 63.898 42.0534 64.1378 41.7768C64.396 41.5001 64.5251 41.0298 64.5251 40.3658V38.0696C64.5251 37.4057 64.396 36.9354 64.1378 36.6587C63.898 36.3821 63.5292 36.2438 63.0312 36.2438H61.5926V42.1917H63.0312ZM4.68848 66.4773H7.62097L8.97655 81.361H9.03188L10.4705 66.4773H13.7903L15.2289 81.361H15.2842L16.6398 66.4773H19.2679L17.3037 85.8428H13.5136L12.1304 72.7849H12.075L10.6918 85.8428H6.65269L4.68848 66.4773ZM20.8072 66.4773H23.8504V85.8428H20.8072V66.4773ZM28.5087 69.2438H25.3272V66.4773H34.7333V69.2438H31.5519V85.8428H28.5087V69.2438ZM36.2067 66.4773H39.2499V74.3618H42.5143V66.4773H45.5575V85.8428H42.5143V77.1283H39.2499V85.8428H36.2067V66.4773ZM18.6999 99.4773H23.0434L24.9799 113.337H25.0352L26.9718 99.4773H31.3152V118.843H28.438V104.18H28.3827L26.1695 118.843H23.6243L21.4111 104.18H21.3558V118.843H18.6999V99.4773ZM33.5861 99.4773H41.8856V102.244H36.6293V107.362H40.8067V110.128H36.6293V116.076H41.8856V118.843H33.5861V99.4773ZM45.7388 112.563C45.7388 111.88 45.8403 111.235 46.0431 110.626C46.2645 109.999 46.661 109.28 47.2327 108.468C47.8967 107.528 48.3486 106.716 48.5883 106.034C48.8281 105.351 48.948 104.632 48.948 103.876C48.948 103.212 48.8189 102.733 48.5607 102.437C48.3025 102.124 47.9244 101.967 47.4264 101.967C46.9284 101.967 46.5503 102.124 46.2921 102.437C46.0339 102.733 45.9048 103.212 45.9048 103.876V105.979H43.0277V104.07C43.0277 102.502 43.4057 101.303 44.1619 100.473C44.9181 99.6248 46.0247 99.2006 47.4817 99.2006C48.9572 99.2006 50.073 99.6248 50.8292 100.473C51.6038 101.303 51.9911 102.502 51.9911 104.07C51.9911 104.918 51.8344 105.739 51.5208 106.532C51.2257 107.306 50.7093 108.183 49.9716 109.16C49.3814 109.953 48.9664 110.617 48.7267 111.152C48.5053 111.668 48.3947 112.176 48.3947 112.673V113.725H45.7388V112.563ZM45.6005 115.91H48.533V118.843H45.6005V115.91Z" fill="white"/>
</svg>
