<svg width="96" height="96" viewBox="0 0 96 96" fill="none" xmlns="http://www.w3.org/2000/svg">
<path fill-rule="evenodd" clip-rule="evenodd" d="M45.7981 22.0183C42.3932 22.0183 39.633 24.7786 39.633 28.1835V39.633H28.1834C24.7785 39.633 22.0183 42.3933 22.0183 45.7982L22.0183 51.0826C22.0183 54.4875 24.7785 57.2477 28.1835 57.2477H39.633V68.6972C39.633 72.1022 42.3932 74.8624 45.7981 74.8624H51.0825C54.4874 74.8624 57.2477 72.1022 57.2477 68.6972V57.2477H68.6972C72.1021 57.2477 74.8623 54.4875 74.8623 51.0826V45.7982C74.8623 42.3933 72.1021 39.633 68.6972 39.633H57.2477V28.1835C57.2477 24.7786 54.4874 22.0183 51.0825 22.0183H45.7981Z" fill="#ADD600"/>
<circle cx="48" cy="48" r="44.9174" stroke="white" stroke-width="6.16514"/>
</svg>
