<svg width="157" height="61" viewBox="0 0 157 61" fill="none" xmlns="http://www.w3.org/2000/svg">
<path d="M22.603 8.0834H41.2905V11.0734H33.6375V33H30.256V11.0734H22.603V8.0834ZM39.8792 32.1101L49.6322 8.0834H53.3341L62.9448 32.1101L59.8481 33.356L57.0716 26.2369H45.5388L42.7624 33.2848L39.8792 32.1101ZM46.6067 23.3893H55.9682L51.3052 11.4293L46.6067 23.3893ZM66.0761 28.0523C66.9304 28.7642 67.8914 29.3456 68.9593 29.7964C70.0271 30.2473 71.273 30.4727 72.6968 30.4727C74.4054 30.4727 75.758 30.1168 76.7546 29.4049C77.7513 28.693 78.2496 27.7319 78.2496 26.5217C78.2496 26.0234 78.1784 25.5606 78.0361 25.1335C77.8937 24.7063 77.6089 24.3029 77.1818 23.9232C76.7784 23.5198 76.197 23.1283 75.4376 22.7486C74.702 22.3452 73.7409 21.918 72.5544 21.4672C71.273 20.9688 70.1814 20.4824 69.2797 20.0078C68.4016 19.5094 67.6897 18.9755 67.1439 18.406C66.5982 17.8127 66.2066 17.172 65.9693 16.4839C65.732 15.772 65.6134 14.9651 65.6134 14.0634C65.6134 13.1854 65.7913 12.3548 66.1473 11.5717C66.527 10.7886 67.0728 10.1123 67.7847 9.5428C68.5203 8.94955 69.4102 8.48681 70.4543 8.15459C71.5221 7.82237 72.7324 7.65626 74.085 7.65626C75.5563 7.65626 76.8733 7.81051 78.0361 8.119C79.1988 8.40376 80.3497 8.81903 81.4888 9.36483L80.243 12.248C79.4361 11.7734 78.4869 11.3819 77.3953 11.0734C76.3275 10.7412 75.2003 10.5751 74.0138 10.5751C72.4476 10.5751 71.2137 10.8836 70.3119 11.5005C69.4102 12.0938 68.9593 12.8887 68.9593 13.8854C68.9593 14.36 69.0186 14.7872 69.1373 15.1668C69.2797 15.5228 69.5407 15.8787 69.9204 16.2347C70.3238 16.5669 70.8696 16.911 71.5577 17.2669C72.2696 17.6229 73.207 18.0144 74.3698 18.4416C75.7461 18.9636 76.9089 19.4976 77.8581 20.0434C78.8073 20.5892 79.5666 21.1705 80.1362 21.7875C80.7057 22.4045 81.1091 23.069 81.3464 23.7809C81.6074 24.4928 81.7379 25.2759 81.7379 26.1301C81.7379 27.2929 81.5125 28.3252 81.0616 29.2269C80.6108 30.1287 79.9819 30.8999 79.1751 31.5406C78.392 32.1576 77.4428 32.6322 76.3275 32.9644C75.2122 33.2729 74.0019 33.4271 72.6968 33.4271C70.9645 33.4271 69.3864 33.2017 67.9626 32.7508C66.5388 32.2762 65.3405 31.6592 64.3675 30.8999L66.0761 28.0523ZM104.567 31.0067L102.218 33.4271L90.1156 21.5384V33H86.7341V8.0834H90.1156V19.4383L100.723 7.97662L103.001 10.0767L93.2836 20.1857L104.567 31.0067ZM108.112 33V8.0834H111.494V33H108.112ZM117.915 8.0834H132.865V11.0022H121.296V18.584H131.263V21.4316H121.296V30.0812H132.865V33H117.915V8.0834Z" fill="white"/>
<path d="M7.0966 50.5966C7.0966 51.2374 7.17796 51.8221 7.34069 52.351C7.51358 52.8696 7.74749 53.3171 8.04242 53.6934C8.34752 54.0697 8.70856 54.3596 9.12553 54.563C9.5425 54.7664 10.0002 54.8681 10.4985 54.8681C10.9968 54.8681 11.429 54.8121 11.7952 54.7003C12.1613 54.5782 12.5172 54.4155 12.863 54.2121L13.3054 55.4172C12.9291 55.6206 12.4969 55.7935 12.0087 55.9359C11.5307 56.0681 10.9714 56.1342 10.3307 56.1342C9.62894 56.1342 8.98823 56.0071 8.40854 55.7529C7.83902 55.4986 7.34577 55.1376 6.9288 54.6697C6.51183 54.1918 6.18639 53.6171 5.95248 52.9459C5.72873 52.2645 5.61686 51.5018 5.61686 50.6577C5.61686 49.8441 5.72873 49.0966 5.95248 48.4152C6.18639 47.7338 6.51691 47.149 6.94405 46.6608C7.3712 46.1625 7.88478 45.776 8.48482 45.5015C9.09502 45.2269 9.77133 45.0896 10.5137 45.0896C11.0324 45.0896 11.4951 45.1404 11.9019 45.2421C12.3189 45.3336 12.7105 45.4659 13.0766 45.6388L12.6342 46.8592C12.3189 46.7066 11.9935 46.5846 11.6579 46.493C11.3324 46.4015 10.946 46.3557 10.4985 46.3557C10.0103 46.3557 9.55775 46.4524 9.14078 46.6456C8.72381 46.8286 8.36277 47.1032 8.05767 47.4694C7.75257 47.8355 7.51358 48.283 7.34069 48.8118C7.17796 49.3305 7.0966 49.9254 7.0966 50.5966ZM19.4341 49.3457C19.2409 49.2644 19.0121 49.2237 18.7477 49.2237C18.4629 49.2237 18.1832 49.2847 17.9086 49.4068C17.6442 49.5288 17.4052 49.7119 17.1916 49.9559C16.9882 50.2 16.8204 50.5153 16.6882 50.9017C16.5662 51.278 16.5052 51.7255 16.5052 52.2442V55.9512H15.1322V48.0185H16.4594V49.7424C16.5509 49.4983 16.673 49.2593 16.8255 49.0254C16.9781 48.7915 17.156 48.5881 17.3594 48.4152C17.573 48.2423 17.8171 48.105 18.0917 48.0033C18.3663 47.8914 18.6714 47.8355 19.007 47.8355C19.1595 47.8355 19.307 47.8456 19.4494 47.866C19.6019 47.8762 19.7342 47.8965 19.846 47.927L19.4341 49.3457ZM21.633 52.5493C21.7245 53.2917 21.9839 53.8714 22.411 54.2884C22.8382 54.7053 23.4026 54.9138 24.1043 54.9138C24.562 54.9138 24.9739 54.8681 25.34 54.7765C25.7061 54.6748 26.057 54.5477 26.3926 54.3952L26.7129 55.5698C26.3468 55.7427 25.9349 55.88 25.4773 55.9817C25.0196 56.0834 24.506 56.1342 23.9365 56.1342C23.367 56.1342 22.8534 56.0427 22.3958 55.8596C21.9381 55.6664 21.5466 55.3969 21.2211 55.0511C20.9058 54.6952 20.6618 54.2629 20.4889 53.7544C20.316 53.2358 20.2295 52.6459 20.2295 51.9849C20.2295 51.395 20.316 50.8458 20.4889 50.3373C20.6618 49.8288 20.9058 49.3915 21.2211 49.0254C21.5364 48.6491 21.9127 48.3592 22.35 48.1558C22.7873 47.9423 23.2755 47.8355 23.8145 47.8355C24.384 47.8355 24.8823 47.9321 25.3095 48.1253C25.7366 48.3186 26.0926 48.583 26.3773 48.9186C26.6621 49.2542 26.8757 49.6457 27.018 50.0932C27.1604 50.5407 27.2316 51.0136 27.2316 51.5119C27.2316 51.8679 27.2164 52.2137 27.1858 52.5493H21.633ZM23.784 49.0254C23.1839 49.0254 22.6907 49.2288 22.3042 49.6356C21.9279 50.0424 21.6991 50.6424 21.6178 51.4357H25.9654C25.9654 50.6628 25.7722 50.0678 25.3858 49.6508C24.9993 49.2339 24.4654 49.0254 23.784 49.0254ZM28.5275 52.0306C28.5275 51.4408 28.619 50.8916 28.8021 50.3831C28.9851 49.8644 29.2394 49.4169 29.5648 49.0406C29.9004 48.6643 30.297 48.3694 30.7547 48.1558C31.2225 47.9423 31.731 47.8355 32.2802 47.8355C32.7379 47.8355 33.1497 47.9168 33.5159 48.0796C33.8922 48.2321 34.2176 48.4253 34.4922 48.6593V48.0185H35.7431V54.029C35.7431 54.4155 35.8346 54.6697 36.0177 54.7918C36.2109 54.9037 36.4194 54.9596 36.6432 54.9596L36.3533 56.0274C35.377 56.0274 34.7871 55.6308 34.5837 54.8376C34.4617 55.0003 34.3193 55.163 34.1566 55.3257C34.004 55.4783 33.8261 55.6156 33.6227 55.7376C33.4192 55.8596 33.1904 55.9563 32.9362 56.0274C32.6819 56.0986 32.4022 56.1342 32.0971 56.1342C31.5988 56.1342 31.131 56.0376 30.6937 55.8444C30.2665 55.6512 29.8902 55.3766 29.5648 55.0206C29.2495 54.6647 28.9953 54.2375 28.8021 53.7392C28.619 53.2307 28.5275 52.6612 28.5275 52.0306ZM32.4022 54.9138C32.7887 54.9138 33.1548 54.8223 33.5006 54.6392C33.8464 54.4562 34.1362 54.2172 34.3701 53.9222V49.6661C34.0956 49.4729 33.7905 49.3203 33.4548 49.2084C33.1294 49.0864 32.7836 49.0254 32.4175 49.0254C32.0514 49.0254 31.7158 49.0966 31.4107 49.2389C31.1056 49.3813 30.8411 49.5847 30.6174 49.8491C30.4038 50.1034 30.236 50.4136 30.114 50.7797C29.9919 51.1458 29.9309 51.5475 29.9309 51.9849C29.9309 52.412 29.9919 52.8086 30.114 53.1748C30.236 53.5307 30.4089 53.8409 30.6327 54.1053C30.8564 54.3596 31.1157 54.5579 31.4107 54.7003C31.7158 54.8426 32.0463 54.9138 32.4022 54.9138ZM39.1021 45.8066H40.1547V48.3084H42.3514V49.4983H40.1547V53.3273C40.1547 53.6222 40.1852 53.8714 40.2462 54.0748C40.3174 54.2782 40.4089 54.4409 40.5208 54.563C40.6327 54.685 40.7649 54.7765 40.9174 54.8376C41.0801 54.8884 41.248 54.9138 41.4208 54.9138C41.6751 54.9138 41.9141 54.8731 42.1378 54.7918C42.3616 54.7104 42.5751 54.6138 42.7785 54.5019L43.1599 55.6003C42.9565 55.7223 42.6819 55.8393 42.3361 55.9512C41.9904 56.0732 41.6293 56.1342 41.253 56.1342C40.4903 56.1342 39.8852 55.8851 39.4377 55.3867C39.0004 54.8884 38.7817 54.1663 38.7817 53.2205V49.4983H37.4088V48.3084H38.8122L39.1021 45.8066ZM45.1115 52.5493C45.203 53.2917 45.4624 53.8714 45.8895 54.2884C46.3166 54.7053 46.8811 54.9138 47.5828 54.9138C48.0405 54.9138 48.4524 54.8681 48.8185 54.7765C49.1846 54.6748 49.5355 54.5477 49.8711 54.3952L50.1914 55.5698C49.8253 55.7427 49.4134 55.88 48.9558 55.9817C48.4981 56.0834 47.9845 56.1342 47.415 56.1342C46.8455 56.1342 46.3319 56.0427 45.8743 55.8596C45.4166 55.6664 45.0251 55.3969 44.6996 55.0511C44.3843 54.6952 44.1403 54.2629 43.9674 53.7544C43.7945 53.2358 43.708 52.6459 43.708 51.9849C43.708 51.395 43.7945 50.8458 43.9674 50.3373C44.1403 49.8288 44.3843 49.3915 44.6996 49.0254C45.0149 48.6491 45.3912 48.3592 45.8285 48.1558C46.2658 47.9423 46.754 47.8355 47.293 47.8355C47.8625 47.8355 48.3608 47.9321 48.788 48.1253C49.2151 48.3186 49.5711 48.583 49.8558 48.9186C50.1406 49.2542 50.3542 49.6457 50.4965 50.0932C50.6389 50.5407 50.7101 51.0136 50.7101 51.5119C50.7101 51.8679 50.6949 52.2137 50.6643 52.5493H45.1115ZM47.2625 49.0254C46.6624 49.0254 46.1692 49.2288 45.7827 49.6356C45.4064 50.0424 45.1776 50.6424 45.0962 51.4357H49.4439C49.4439 50.6628 49.2507 50.0678 48.8642 49.6508C48.4778 49.2339 47.9439 49.0254 47.2625 49.0254ZM57.266 45.3031C57.744 45.2523 58.2118 45.2167 58.6694 45.1964C59.1271 45.1658 59.6508 45.1506 60.2407 45.1506C61.156 45.1506 61.9442 45.293 62.6052 45.5777C63.2663 45.8625 63.8155 46.254 64.2528 46.7524C64.6901 47.2507 65.0105 47.8304 65.2139 48.4914C65.4274 49.1525 65.5342 49.8542 65.5342 50.5966C65.5342 51.3391 65.4274 52.0459 65.2139 52.7171C65.0003 53.3782 64.6698 53.9578 64.2223 54.4562C63.785 54.9545 63.2205 55.3511 62.529 55.6461C61.8476 55.9308 61.0289 56.0732 60.0729 56.0732C59.4932 56.0732 58.9847 56.058 58.5474 56.0274C58.1203 56.0071 57.6931 55.9715 57.266 55.9207V45.3031ZM60.1949 46.4015C59.9 46.4015 59.6305 46.4117 59.3864 46.432C59.1423 46.4422 58.9186 46.4574 58.7152 46.4778V54.7308C58.9288 54.7613 59.1525 54.7816 59.3864 54.7918C59.6203 54.802 59.8644 54.807 60.1187 54.807C60.8001 54.807 61.3899 54.7053 61.8883 54.5019C62.3866 54.2884 62.7934 53.9985 63.1087 53.6324C63.4341 53.2561 63.6731 52.8137 63.8256 52.3052C63.9782 51.7865 64.0545 51.217 64.0545 50.5966C64.0545 50.0475 63.9782 49.5237 63.8256 49.0254C63.6731 48.5169 63.4392 48.0694 63.1239 47.6829C62.8086 47.2863 62.4069 46.9761 61.9188 46.7524C61.4306 46.5185 60.856 46.4015 60.1949 46.4015ZM68.3814 52.5493C68.473 53.2917 68.7323 53.8714 69.1594 54.2884C69.5866 54.7053 70.151 54.9138 70.8527 54.9138C71.3104 54.9138 71.7223 54.8681 72.0884 54.7765C72.4545 54.6748 72.8054 54.5477 73.141 54.3952L73.4614 55.5698C73.0952 55.7427 72.6834 55.88 72.2257 55.9817C71.768 56.0834 71.2545 56.1342 70.6849 56.1342C70.1154 56.1342 69.6018 56.0427 69.1442 55.8596C68.6865 55.6664 68.295 55.3969 67.9695 55.0511C67.6543 54.6952 67.4102 54.2629 67.2373 53.7544C67.0644 53.2358 66.978 52.6459 66.978 51.9849C66.978 51.395 67.0644 50.8458 67.2373 50.3373C67.4102 49.8288 67.6543 49.3915 67.9695 49.0254C68.2848 48.6491 68.6611 48.3592 69.0984 48.1558C69.5357 47.9423 70.0239 47.8355 70.5629 47.8355C71.1324 47.8355 71.6308 47.9321 72.0579 48.1253C72.485 48.3186 72.841 48.583 73.1257 48.9186C73.4105 49.2542 73.6241 49.6457 73.7665 50.0932C73.9088 50.5407 73.98 51.0136 73.98 51.5119C73.98 51.8679 73.9648 52.2137 73.9343 52.5493H68.3814ZM70.5324 49.0254C69.9324 49.0254 69.4391 49.2288 69.0526 49.6356C68.6764 50.0424 68.4475 50.6424 68.3662 51.4357H72.7139C72.7139 50.6628 72.5206 50.0678 72.1342 49.6508C71.7477 49.2339 71.2138 49.0254 70.5324 49.0254ZM77.1065 53.3273C77.1065 53.8765 77.2184 54.2833 77.4421 54.5477C77.676 54.8121 77.9964 54.9443 78.4032 54.9443C78.5964 54.9443 78.7845 54.924 78.9676 54.8833C79.1507 54.8325 79.3134 54.7765 79.4558 54.7155L79.7914 55.8291C79.6083 55.9105 79.3795 55.9817 79.1049 56.0427C78.8405 56.1037 78.5455 56.1342 78.2201 56.1342C77.8642 56.1342 77.5336 56.0834 77.2285 55.9817C76.9336 55.88 76.6743 55.7223 76.4505 55.5088C76.2268 55.2952 76.0488 55.0206 75.9166 54.685C75.7946 54.3494 75.7335 53.9426 75.7335 53.4646V44.6624H77.1065V53.3273ZM81.7296 52.5493C81.8211 53.2917 82.0805 53.8714 82.5076 54.2884C82.9347 54.7053 83.4992 54.9138 84.2009 54.9138C84.6586 54.9138 85.0705 54.8681 85.4366 54.7765C85.8027 54.6748 86.1536 54.5477 86.4892 54.3952L86.8095 55.5698C86.4434 55.7427 86.0315 55.88 85.5739 55.9817C85.1162 56.0834 84.6026 56.1342 84.0331 56.1342C83.4636 56.1342 82.95 56.0427 82.4924 55.8596C82.0347 55.6664 81.6432 55.3969 81.3177 55.0511C81.0024 54.6952 80.7584 54.2629 80.5855 53.7544C80.4126 53.2358 80.3261 52.6459 80.3261 51.9849C80.3261 51.395 80.4126 50.8458 80.5855 50.3373C80.7584 49.8288 81.0024 49.3915 81.3177 49.0254C81.633 48.6491 82.0093 48.3592 82.4466 48.1558C82.8839 47.9423 83.3721 47.8355 83.9111 47.8355C84.4806 47.8355 84.9789 47.9321 85.4061 48.1253C85.8332 48.3186 86.1892 48.583 86.4739 48.9186C86.7587 49.2542 86.9723 49.6457 87.1146 50.0932C87.257 50.5407 87.3282 51.0136 87.3282 51.5119C87.3282 51.8679 87.313 52.2137 87.2824 52.5493H81.7296ZM83.8806 49.0254C83.2805 49.0254 82.7873 49.2288 82.4008 49.6356C82.0245 50.0424 81.7957 50.6424 81.7143 51.4357H86.062C86.062 50.6628 85.8688 50.0678 85.4823 49.6508C85.0959 49.2339 84.562 49.0254 83.8806 49.0254ZM92.3005 47.8355C92.7582 47.8355 93.165 47.9118 93.5209 48.0643C93.8871 48.2169 94.2023 48.405 94.4667 48.6287V48.0185H95.7177V55.7681C95.7177 56.4292 95.6312 56.9936 95.4583 57.4614C95.2854 57.9292 95.0363 58.3106 94.7108 58.6056C94.3956 58.9107 94.0142 59.1344 93.5667 59.2768C93.1192 59.4192 92.6209 59.4903 92.0717 59.4903C91.5937 59.4903 91.1361 59.4344 90.6987 59.3225C90.2614 59.2107 89.8699 59.0429 89.5241 58.8191L90.0275 57.6292C90.2716 57.8225 90.5564 57.9801 90.8818 58.1021C91.2072 58.2343 91.6039 58.3005 92.0717 58.3005C92.7938 58.3005 93.3582 58.1123 93.765 57.736C94.182 57.3597 94.3905 56.7495 94.3905 55.9054V54.9291C94.1871 55.1732 93.8921 55.4071 93.5057 55.6308C93.1294 55.8444 92.6768 55.9512 92.148 55.9512C91.7005 55.9512 91.2632 55.8647 90.836 55.6918C90.4089 55.5088 90.0326 55.2494 89.7072 54.9138C89.3817 54.568 89.1173 54.1511 88.9139 53.6629C88.7207 53.1646 88.6241 52.5951 88.6241 51.9543C88.6241 51.3645 88.7207 50.8204 88.9139 50.3221C89.1071 49.8136 89.3665 49.3762 89.6919 49.0101C90.0275 48.644 90.4191 48.3592 90.8665 48.1558C91.314 47.9423 91.792 47.8355 92.3005 47.8355ZM92.4531 54.7308C92.8599 54.7308 93.226 54.6392 93.5514 54.4562C93.8769 54.2731 94.1413 54.0595 94.3447 53.8155V49.6661C94.1108 49.5034 93.8413 49.3559 93.5362 49.2237C93.2311 49.0915 92.865 49.0254 92.4378 49.0254C92.1225 49.0254 91.8174 49.0915 91.5225 49.2237C91.2378 49.3457 90.9835 49.5288 90.7598 49.7729C90.536 50.017 90.358 50.317 90.2258 50.6729C90.0936 51.0187 90.0275 51.4204 90.0275 51.8781C90.0275 52.3154 90.0936 52.712 90.2258 53.068C90.358 53.4137 90.536 53.7138 90.7598 53.968C90.9835 54.2121 91.2378 54.4002 91.5225 54.5325C91.8174 54.6647 92.1276 54.7308 92.4531 54.7308ZM97.5477 52.0306C97.5477 51.4408 97.6392 50.8916 97.8223 50.3831C98.0053 49.8644 98.2596 49.4169 98.585 49.0406C98.9206 48.6643 99.3173 48.3694 99.7749 48.1558C100.243 47.9423 100.751 47.8355 101.3 47.8355C101.758 47.8355 102.17 47.9168 102.536 48.0796C102.912 48.2321 103.238 48.4253 103.512 48.6593V48.0185H104.763V54.029C104.763 54.4155 104.855 54.6697 105.038 54.7918C105.231 54.9037 105.44 54.9596 105.663 54.9596L105.374 56.0274C104.397 56.0274 103.807 55.6308 103.604 54.8376C103.482 55.0003 103.34 55.163 103.177 55.3257C103.024 55.4783 102.846 55.6156 102.643 55.7376C102.439 55.8596 102.211 55.9563 101.956 56.0274C101.702 56.0986 101.422 56.1342 101.117 56.1342C100.619 56.1342 100.151 56.0376 99.7139 55.8444C99.2867 55.6512 98.9105 55.3766 98.585 55.0206C98.2697 54.6647 98.0155 54.2375 97.8223 53.7392C97.6392 53.2307 97.5477 52.6612 97.5477 52.0306ZM101.422 54.9138C101.809 54.9138 102.175 54.8223 102.521 54.6392C102.867 54.4562 103.156 54.2172 103.39 53.9222V49.6661C103.116 49.4729 102.811 49.3203 102.475 49.2084C102.15 49.0864 101.804 49.0254 101.438 49.0254C101.072 49.0254 100.736 49.0966 100.431 49.2389C100.126 49.3813 99.8614 49.5847 99.6376 49.8491C99.424 50.1034 99.2562 50.4136 99.1342 50.7797C99.0122 51.1458 98.9511 51.5475 98.9511 51.9849C98.9511 52.412 99.0122 52.8086 99.1342 53.1748C99.2562 53.5307 99.4291 53.8409 99.6529 54.1053C99.8766 54.3596 100.136 54.5579 100.431 54.7003C100.736 54.8426 101.067 54.9138 101.422 54.9138ZM108.122 45.8066H109.175V48.3084H111.372V49.4983H109.175V53.3273C109.175 53.6222 109.205 53.8714 109.266 54.0748C109.338 54.2782 109.429 54.4409 109.541 54.563C109.653 54.685 109.785 54.7765 109.938 54.8376C110.1 54.8884 110.268 54.9138 110.441 54.9138C110.695 54.9138 110.934 54.8731 111.158 54.7918C111.382 54.7104 111.595 54.6138 111.799 54.5019L112.18 55.6003C111.977 55.7223 111.702 55.8393 111.356 55.9512C111.011 56.0732 110.65 56.1342 110.273 56.1342C109.511 56.1342 108.905 55.8851 108.458 55.3867C108.021 54.8884 107.802 54.1663 107.802 53.2205V49.4983H106.429V48.3084H107.832L108.122 45.8066ZM114.132 52.5493C114.223 53.2917 114.483 53.8714 114.91 54.2884C115.337 54.7053 115.901 54.9138 116.603 54.9138C117.061 54.9138 117.473 54.8681 117.839 54.7765C118.205 54.6748 118.556 54.5477 118.891 54.3952L119.212 55.5698C118.846 55.7427 118.434 55.88 117.976 55.9817C117.518 56.0834 117.005 56.1342 116.435 56.1342C115.866 56.1342 115.352 56.0427 114.894 55.8596C114.437 55.6664 114.045 55.3969 113.72 55.0511C113.405 54.6952 113.16 54.2629 112.988 53.7544C112.815 53.2358 112.728 52.6459 112.728 51.9849C112.728 51.395 112.815 50.8458 112.988 50.3373C113.16 49.8288 113.405 49.3915 113.72 49.0254C114.035 48.6491 114.411 48.3592 114.849 48.1558C115.286 47.9423 115.774 47.8355 116.313 47.8355C116.883 47.8355 117.381 47.9321 117.808 48.1253C118.235 48.3186 118.591 48.583 118.876 48.9186C119.161 49.2542 119.374 49.6457 119.517 50.0932C119.659 50.5407 119.73 51.0136 119.73 51.5119C119.73 51.8679 119.715 52.2137 119.685 52.5493H114.132ZM116.283 49.0254C115.683 49.0254 115.189 49.2288 114.803 49.6356C114.427 50.0424 114.198 50.6424 114.116 51.4357H118.464C118.464 50.6628 118.271 50.0678 117.884 49.6508C117.498 49.2339 116.964 49.0254 116.283 49.0254ZM125.142 45.6235L126.576 45.1658L128.986 54.4104L131.259 46.3862H133.075L135.332 54.4104L137.727 45.2116L139.07 45.6235L136.187 55.9512H134.387L132.129 47.927L129.841 55.9512H128.041L125.142 45.6235ZM141.898 55.9512H140.525V48.0185H141.898V55.9512ZM141.211 46.6608C140.947 46.6608 140.718 46.5693 140.525 46.3862C140.342 46.193 140.25 45.9642 140.25 45.6998C140.25 45.4048 140.336 45.1709 140.509 44.998C140.682 44.8251 140.916 44.7387 141.211 44.7387C141.476 44.7387 141.699 44.8353 141.882 45.0285C142.076 45.2116 142.172 45.4353 142.172 45.6998C142.172 45.9947 142.086 46.2286 141.913 46.4015C141.74 46.5744 141.506 46.6608 141.211 46.6608ZM145.666 49.3457C145.95 48.9186 146.311 48.5626 146.749 48.2779C147.196 47.9829 147.725 47.8355 148.335 47.8355C149.23 47.8355 149.896 48.105 150.334 48.644C150.781 49.183 151.005 49.8949 151.005 50.7797V55.9512H149.632V50.9323C149.632 50.3526 149.5 49.8949 149.235 49.5593C148.971 49.2135 148.595 49.0406 148.106 49.0406C147.872 49.0406 147.644 49.0864 147.42 49.1779C147.196 49.2593 146.978 49.3762 146.764 49.5288C146.561 49.6813 146.367 49.8593 146.184 50.0627C146.011 50.2661 145.854 50.4797 145.711 50.7034V55.9512H144.338V48.0185H145.666V49.3457Z" fill="white"/>
</svg>
